<?xml version="1.0" encoding="UTF-8" standalone="no"?>
<!DOCTYPE svg PUBLIC "-//W3C//DTD SVG 1.1//EN" "http://www.w3.org/Graphics/SVG/1.1/DTD/svg11.dtd">
<svg width="100%" height="100%" viewBox="0 0 1800 1800" version="1.1" xmlns="http://www.w3.org/2000/svg" xmlns:xlink="http://www.w3.org/1999/xlink" xml:space="preserve" xmlns:serif="http://www.serif.com/" style="fill-rule:evenodd;clip-rule:evenodd;stroke-linejoin:round;stroke-miterlimit:2;">
    <g id="Gemini_Generated_Image_uf1q0quf1q0quf1q_upscaled.jpeg" transform="matrix(1.757812,0,0,1.757812,0,31)">
        <path d="M399.257,198.819C404.548,203.132 410.272,205.569 420.221,223.606C422.367,227.497 413.355,222.409 400.48,221.104C393.166,220.362 412.627,236.898 415.807,239.045C437.708,253.825 456.086,244.288 452.66,249.573C441.001,267.561 424.978,266.665 427.513,269.492C427.552,269.535 435.034,274.471 441.146,283.736C447.459,293.304 445.274,295.347 455.228,300.994C478.308,314.088 479.05,313.034 485.599,320.416C489.681,325.016 512.136,323.795 518.091,328.995C527.336,337.067 528.779,333.672 547.444,335.91C555.954,336.93 553.654,342.128 562.421,343.956C582.135,348.069 585.826,340.439 597.002,351.983C605.549,360.812 602.391,364.168 613.431,369.631C626.458,376.077 660.099,387.812 651.108,395.051C647.087,398.289 642.378,399.487 647.308,400.971C682.8,411.658 716.383,444.657 705.488,442.728C703.929,442.453 696.055,440.079 696.555,442.484C697.226,445.707 711.042,451.095 740.073,500.743C753.256,523.289 754.784,525.416 759.113,532.762C765.634,543.181 806.942,621.93 863.363,603.099C896.844,591.924 905.028,545.484 874.167,519.892C865.258,512.504 891.032,515.665 892.524,515.848C896.117,516.288 882.905,490.253 859.24,473.867C850.201,467.608 839.614,462.919 842.696,461.868C853.974,458.023 883.071,457.499 906.234,471.941C926.015,484.274 930.716,497.125 930.127,491.431C930.027,490.47 929.817,490.537 928.249,479.506C927.327,473.021 957.966,491.171 965.104,529.561C968.546,548.079 966.384,558.088 965.862,560.508C964.215,568.133 978.332,546.125 979.142,550.645C982.206,567.744 975.408,613.809 943.858,634.916C937.717,639.023 964.07,634.443 959.122,640.204C936.755,666.243 897.608,679.288 869.49,676.064C863.784,675.41 868.899,678.858 869.095,678.99C869.829,679.485 879.805,686.211 875.333,688.132C860.856,694.35 814.01,689.211 781.692,653.113C777.717,648.673 783.577,665.721 779.727,663.077C750.499,643.004 745.428,639.033 716.682,569.42C713.361,561.376 697.067,526.201 701.599,544.483C705.949,562.029 703.94,562.879 702.482,562.756C699.887,562.536 698.073,559.884 698.729,562.498C700.677,570.244 709.901,592.335 708.363,593.116C706.086,594.272 697.959,587.782 698.796,594.465C703.615,632.935 721.438,657.972 735.562,661.262C747.751,664.102 755.214,662.475 750.083,670.212C749.842,670.576 747.35,674.333 748.547,675.451C751.55,678.257 759.07,681.437 764.395,701.526C764.536,702.06 766.509,709.502 762.577,708.188C761.183,707.722 757.686,704.648 758.803,710.443C771.446,776.027 773.151,775.606 779.72,803.442C782.504,815.244 781.245,816.644 782.981,820.131C784.577,841.833 789.239,850.476 772.755,859.975C769.037,862.118 765.667,870.719 761.062,862.731C759.063,859.265 758.024,862.816 745.527,863.838C742.307,864.101 740.018,871.15 736.623,865.431C734.397,861.681 733.462,863.007 723.498,862.533C720.304,862.381 718.425,870.209 713.777,863.316C710.425,858.344 709.451,859.639 703.517,859.688C702.109,859.7 695.592,870.44 691.235,855.592C686.514,839.505 694.53,824.182 695.795,821.762C700.54,816.296 700.888,816.767 707.223,813.099C709.221,811.942 709.005,811.754 709.538,809.542C714.351,802.438 714.048,732.695 680.267,707.793C657.69,691.15 632.7,683.914 617.104,664.83C616.823,664.486 612.875,659.654 612.148,662.321C611.774,663.695 611.351,669.828 605.997,663.087C584.579,636.119 566.916,583.306 565.221,582.826C564.947,582.748 564.699,583.217 564.425,583.139C564.158,583.29 563.891,583.44 563.624,583.591C547.469,619.557 539.72,646.011 572.906,677.073C575.004,679.037 584.729,688.14 578.636,712.535C577.546,716.897 574.18,712.233 572.917,714.721C572.826,714.9 563.97,738.966 559.115,757.406C553.516,778.677 558.343,780.539 545.739,798.667C542.793,802.905 542.77,802.766 540.789,807.496C534.955,817.23 538.044,823.883 524.394,829.211C499.894,838.774 484.881,836.34 481.45,835.784C473.917,834.563 474.011,834.974 466.495,834.794C456.871,834.564 441,826.962 440.409,827.159C437.483,828.135 431.067,833.44 432.132,821.464C432.583,816.392 434.931,810.217 435.29,809.276C436.41,807.713 437.862,805.687 451.775,791.786C465.805,777.769 480.003,797.347 495.232,768.354C499.769,759.715 517.707,718.798 507.173,703.717C499.699,693.015 487.296,688.593 471.314,673.722C468.639,671.233 468.361,677.874 465.473,675.533C458.49,669.874 448.26,649.184 447.048,646.732C441.514,635.54 444.344,664.568 441.135,678.422C430.797,723.054 419.277,743.243 415.592,789.507C414.599,801.978 410.027,799.832 408.365,803.425C406.777,806.857 407.13,806.985 408.675,810.318C407.852,813.137 407.634,813.075 407.64,833.5C407.646,858.537 422.319,874.76 403.284,886.125C393.031,892.246 397.549,897.232 391.504,899.508C388.306,900.712 385.153,892.162 384.862,891.374C382.24,884.265 372.935,889.606 368.534,890.65C363.763,891.782 364.693,893.03 362.082,897.228C353.7,910.704 351.72,887.224 347.445,888.014C341.976,889.024 342.075,888.962 336.489,889.06C332.815,889.124 331.159,896.558 328.627,897.719C321.069,901.185 322.403,884.828 315.323,881.955C309.692,879.67 307.511,899.278 301.718,890.345C293.944,878.36 301.103,861.269 302.164,856.427C307.124,833.805 316.883,836.829 324.345,833.216C332.723,829.157 328.951,826.66 328.076,817.457C328.684,810.536 330.584,811.073 331.444,804.383C341.995,796.163 342.735,776.051 344.001,764.441C344.644,758.541 337.384,751.209 343.908,742.804C347.725,737.888 347.372,737.478 347.146,719.508C347.13,718.228 345.991,688.566 344.281,686.677C330.478,671.424 343.785,667.362 343.111,659.545C340.605,630.485 342.694,627.412 335.542,626.222C325.647,624.574 317.697,625.015 301.299,615.982C295.278,612.665 308.772,632.995 303.509,632.141C289.572,629.882 269.98,617.8 269.73,620.566C269.056,628.013 269.613,630.511 272.466,632.545C279.39,637.481 265.075,656.308 266.205,660.575C270.807,677.962 262.043,675.66 258.501,681.501C257.977,682.364 241.601,730.572 242.153,734.55C243.068,741.145 249.452,742.392 240.935,753.828C236.626,759.614 249.195,770.374 235.838,779.964C227.53,785.93 242.412,805.385 232.519,818.512C228.433,823.738 229.184,824.077 227.803,830.529C225.068,838.765 224.9,840.286 217.526,840.089C211.872,839.938 218.42,855.594 201.514,859.561C175.844,865.584 175.77,869.294 155.475,864.622C150.633,863.507 144.415,878.545 140.764,866.426C140.47,865.452 140.438,865.345 129.485,860.541C126.424,859.198 116.517,873.562 115.24,861.544C114.697,856.427 113.946,853.84 109.8,856.923C109.46,857.175 94.331,871.76 97.993,847.567C98.061,847.118 98.081,847.242 98.986,841.98C107,826.811 109.908,829.308 114.373,824.377C114.606,824.119 114.551,824.108 116.779,820.754C131.082,799.407 146.62,823.104 160.929,801.793C168.632,790.321 169.067,789.241 165.732,785.326C161.218,780.027 166.908,777.293 169.646,747.513C174.697,692.592 160.28,618.969 171.429,615.347C173.712,614.605 178.263,616.117 177.311,608.525C177.237,607.939 160.726,576.621 160.497,576.504C157.853,575.157 140.155,579.31 134.198,562.613C119.564,521.595 122.066,517.626 124.172,514.286C127.024,509.763 112.114,479.914 118.804,469.722C123.547,462.496 106.387,447.609 118.002,425.213C119.9,421.553 118.734,421.464 117.812,417.425C116.572,411.996 116.752,412.069 116.236,406.562C115.977,406.251 115.717,405.94 115.458,405.629C115.268,405.843 114.789,405.409 114.599,405.623C110.48,410.284 105.551,424.104 103.774,420.343C93.05,397.655 98.853,371.696 99.777,367.563C100.559,364.066 102.975,362.633 99.409,361.848C94.233,360.709 92.669,361.354 93.498,359.5C96.67,352.406 105.775,344.586 98.433,343.98C84.791,342.855 77.545,351.006 79.685,341.539C86.026,313.491 98.518,310.774 94.289,308.867C91.555,307.635 82.989,306.204 73.551,293.467C70.143,288.869 87.615,294.154 104.119,275.211C109.007,269.601 94.072,266.639 104.735,243.611C106.062,240.744 94.787,228.187 93.601,207.521C93.479,205.38 103.321,211.558 102.75,208.515C100.858,198.435 90.556,167.103 104.632,121.546C107.663,111.737 104.539,129.947 134.672,156.294C139.276,160.32 140.389,152.801 147.34,155.84C153.432,158.503 157.677,164.645 158.578,161.539C159.251,159.216 163.63,144.111 172.753,134.841C175.726,131.819 174.289,158.925 177.917,149.838C190.62,118.021 233.552,105.784 227.731,112.629C221.472,119.991 214.501,135.817 218.518,133.544C225.576,129.551 224.282,126.036 260.469,118.351C290.402,111.995 287.262,102.785 291.564,101.642C294.354,100.902 293.975,120.858 286.079,134.277C282.228,140.82 289.357,136.583 308.525,139.345C310.865,139.682 312.425,140.798 320.279,127.374C324.925,119.432 325.702,119.166 326.014,119.855C329.816,128.254 331.664,146.065 333.232,146.931C374.904,169.938 397.477,160.054 402.624,157.8C406.626,156.047 406.133,158.169 406.049,158.435C396.197,189.412 380.346,186.318 383.462,190.529C384.311,191.676 385.155,190.319 399.257,198.819Z" style="fill:rgb(28,25,37);"/>
        <path d="M678.52,523.613C682.869,537.834 683.922,538.338 682.712,538.646C679.512,539.459 670.982,531.968 675.02,539.746C686.504,561.869 685.383,564.312 683.452,563.685C681.728,563.125 682.164,562.484 680.438,561.831C677.594,560.754 680.01,563.596 685.373,599.52C694.057,657.681 726.415,673.775 728.871,692.419C729.8,699.472 731.449,698.614 736.362,703.634C744.448,711.894 759.658,814.419 773.737,821.556C774.708,834.125 778.514,848.382 773.544,848.352C773.169,848.35 770.353,832.519 763.75,838.805C759.052,843.276 761.56,857.736 758.469,851.526C756.7,847.969 757.536,834.793 759.895,827.608C762.726,818.985 755.197,825.881 754.122,831.39C751.167,846.548 755.528,854.575 748.539,854.023C746.231,853.841 750.186,834.279 741.519,836.561C737.804,837.54 736.923,844.824 735.296,848.04C732.517,843.184 737.272,825.243 743.607,820.624C749.535,816.302 734.914,815.265 730.804,831.564C727.222,845.768 731.981,856.347 726.698,853.154C726.044,852.758 727.875,832.166 719.404,835.185C716.553,836.201 715.215,841.208 714.307,843.286C714.172,843.194 713.149,843.925 713.276,841.529C713.35,840.129 716.942,826.747 720.832,822.857C721.704,821.985 728.14,817.62 724.473,817.637C711.97,817.695 709.387,835.372 709.098,837.351C709.073,837.521 709.047,837.502 708.413,839.385C707.125,837.591 707.144,837.695 706.457,835.521C705.213,831.588 699.896,834.374 700.364,832.499C702.419,824.263 703.81,824.937 711.457,821.389C727.946,813.737 719.621,754.564 707.326,727.578C696.693,704.241 680.608,696.822 675.763,694.036C633.65,669.816 635.589,666.652 631.611,665.255C620.806,661.459 614.636,643.567 611.559,642.398C609.026,641.435 609.973,643.363 609.102,647.412C606.013,661.762 576.586,578.188 557.074,546.751C540.462,519.984 515.339,521.352 524.302,524.733C541.521,531.227 542.618,536.586 552.894,553.361C555.63,557.827 546.256,552.515 531.524,551.224C493.603,547.901 456.224,582.511 465.092,571.397C467.966,567.794 475.459,554.703 478.873,546.687C504.764,485.898 497.834,457.288 500.649,455.863C512.816,449.701 513.66,443.704 514.057,431.414C514.154,428.392 520.099,428.377 523.548,427.82C532.675,426.344 535.005,423.875 538.978,432.288C545.14,445.336 548.442,442.259 565.509,442.338C573.009,442.372 601.524,512.834 678.52,523.613Z" style="fill:rgb(50,45,55);"/>
        <path d="M333.947,165.368C341.262,166.947 361.943,178.211 383.466,174.397C383.68,174.359 383.637,174.504 385.773,175.841C372.06,191.157 351.784,187.538 348.597,192.341C329.72,194.728 369.978,192.256 391.438,211.728C388.918,212.703 378.728,213.603 372.405,216.825C370.622,217.474 370.216,218.136 371.739,219.217C380.906,225.718 387.073,232.735 392.572,238.435C409.866,256.361 416.027,253.698 427.52,257.628C425.573,259.126 425.612,259.164 425.417,259.246C403.553,268.501 381.573,255.046 380.424,255.251C376.959,255.871 388.985,265.303 389.887,266.011C439.639,305.035 431.102,356.35 438.904,369.228C449.885,387.352 451.267,400.352 453.942,419.419C454.392,422.63 463.529,433.472 465.71,440.425C468.549,449.479 469.534,448.908 476.162,455.761C478.952,458.646 472.468,486.917 471.858,489.575C470.359,496.115 457.986,550.059 442.203,568.03C440.996,569.404 439.875,567.779 438.283,545.509C437.634,536.43 460.385,539.786 459.782,509.486C458.97,468.743 456.26,466.858 453.294,464.795C450.222,462.657 450.774,462.083 449.279,451.531C444.871,420.41 445.886,418.584 437.5,414.499C431.129,411.395 430.63,355.755 411.458,357.183C405.941,357.594 384.266,388.202 387.698,377.532C396.202,351.101 390.164,332.703 387.668,323.477C385.947,317.114 400.925,333.287 403.676,332.754C404.33,332.627 404.89,319.363 396.31,296.57C383.101,261.486 354.457,249.968 364.861,259.129C368.629,262.447 387.816,279.34 394.399,314.497C395.071,318.084 386.531,310.691 374.472,306.756C372.375,306.071 374.495,310.169 374.631,310.43C379.585,320.003 386.402,343.98 383.2,363.459C381.899,371.368 380.098,361.949 370.722,354.097C366.282,350.379 371.913,359.645 365.747,382.583C360.87,400.722 359.27,400.861 342.394,409.18C340.131,410.295 340.2,395.775 337.1,385.79C333.569,374.415 342.314,401.177 320.137,442.288C314.209,453.278 294.572,475.669 294.763,470.47C294.83,468.64 295.957,437.941 291.998,447.737C282.839,470.401 270.75,477.486 257.067,499.229C237.514,530.299 245.494,541.671 239.219,536.903C214.551,518.16 206.017,490.995 205.453,490.57C201.674,487.719 202.763,509.803 199.861,507.023C184.637,492.438 180.553,471.947 180.173,471.789C179.081,471.335 176.292,471.62 178.84,486.516C180.369,495.455 162.066,469.625 155.384,444.535C153.154,436.165 150.159,448.822 148.586,453.515C148.278,452.909 147.124,453.106 146.816,452.5C146.512,451.901 147.133,451.167 147.054,450.5C147.009,450.126 146.748,449.784 146.463,449.538C143.478,446.954 143.399,447.069 141.67,443.439C129.795,418.519 130.423,386.423 129.894,380.305C129.839,379.676 126.798,376.371 123.872,385.399C118.578,386.427 120.075,388.701 112.062,395.16C108.108,389.641 113.581,370.388 114.639,364.328C117.112,364.88 121.338,365.822 143.228,377.946C169.637,392.572 178.142,439.843 226.419,431.016C257.841,425.271 261.4,390.13 296.755,372.975C330.331,356.683 334.956,365.897 337.281,360.452C338.086,358.566 330.45,348.324 329.727,347.355C325.069,341.107 351.528,346.519 351.993,344.651C352.152,344.012 350.865,333.343 345.02,322.763C339.382,312.558 332.635,310.831 339.398,308.24C352.887,303.072 360.654,291.815 357.648,291.181C349.933,289.554 340.66,289.623 327.968,276.082C321.766,269.465 336.597,264.176 326.911,243.31C324.676,238.494 338.841,230.4 337.242,215.526C336.997,213.249 343.651,192.768 338.574,194.737C337.789,195.042 330.314,199.647 331.228,194.458C333.776,179.99 333.351,180.005 333.947,165.368Z" style="fill:rgb(51,47,57);"/>
        <path d="M135.253,179.531C135.975,175.97 141.862,161.073 147.148,164.992C179.161,188.723 187.133,214.245 186.245,204.473C185.948,201.206 189.169,201.163 195.555,199.801C221.496,194.268 240.828,201.337 245.499,202.501C245.437,202.701 244.249,210.545 247.74,203.851C250.236,200.214 269.686,171.88 285.644,163.798C289.63,161.779 291.474,170.166 292.733,173.433C288.149,171.098 285.816,167.665 272.568,181.566C263.617,190.958 251.702,210.262 254.608,213.409C256.244,215.182 256.293,214.993 258.689,215.369C262.793,219.651 272.553,224.063 281.165,236.736C282.686,238.975 282.765,238.823 284.368,240.915C284.367,241.707 287.882,254.67 293.891,259.414C306.33,326.87 270.266,328.631 263.582,331.696C249.735,338.048 249.609,353.469 252.468,350.445C253.832,349.002 257.611,339.571 273.486,337.393C299.492,333.826 293.752,323.131 298.492,320.55C299.008,320.269 300.652,326.594 295.154,335.249C280.025,349.937 272.43,338.291 268.604,345.543C267.731,347.199 270.741,346.234 275.364,347.889C281.343,350.029 281.171,350.862 287.487,350.322C280.424,359.057 283.238,361.933 279.186,362.533C277.362,349.308 266.463,351.135 260.149,363.359C257.874,364.031 257.834,365.033 255.114,369.262C238.885,394.492 232.942,391.113 219.212,382.433C223.929,375.363 226.237,376.659 231.205,373.111C236.841,369.088 234.123,360.039 233.197,358.786C231.87,356.992 231.875,360.916 231.385,363.448C218.496,372.663 212.728,372.441 200.847,364.215C200.757,364.093 199.598,363.789 199.445,361.514C199.432,361.329 199.006,354.999 197.393,360.431C192.908,375.533 204.174,372.136 211.859,382.372C197.403,390.544 190.118,397.04 174.784,369.5C174.292,368.616 174.017,368.531 173.916,368.5C172.957,368.204 173.03,368.959 172.005,368.643C171.253,364.812 171.17,364.973 169.842,361.337C162.99,350.402 153.868,351.541 151.77,361.554C150.565,360.678 150.431,360.726 144.497,350.423C153.323,349.763 153.028,348.574 161.627,346.731C162.127,346.624 163.818,343.951 156.455,342.979C146.892,341.716 145.449,344.514 135.965,335.183C132.123,328.865 132.048,328.862 131.446,321.487C130.833,313.982 134.712,332.306 148.441,335.717C163.355,339.421 168.991,336.668 177.993,350.083C180.848,354.337 183.776,337.283 163.598,330.222C143.558,323.209 142.95,321.531 135.977,299.393L135.789,298.444C135.267,295.533 133.155,283.758 136.425,261.484C137.675,260.057 141.713,255.445 147.529,240.537C159.638,221.563 163.832,222.986 172.378,215.399C174.643,214.998 174.696,215.072 176.351,213.368C181.561,208.002 149.369,166.081 142.462,170.406C140.926,171.368 134.582,182.842 135.253,179.531Z" style="fill:rgb(240,227,212);"/>
        <path d="M152.519,478.432C153.547,474.963 153.237,475.002 153.676,471.511C155.511,456.942 157.088,479.088 180.596,500.369C183.221,502.745 182.087,498.305 183.33,497.761C184.68,497.171 182.726,499.856 194.791,512.179C198.663,516.134 210.516,523.774 209.237,519.544C208.934,518.543 208.435,517.609 208.141,516.606C199.676,487.73 211.39,529.344 242.713,548.093C252.788,554.123 242.633,539.841 261.716,506.629C272.261,488.279 284.418,474.302 286.671,471.712C294.158,463.104 279.403,492.463 288.814,485.964C322.675,462.583 328.006,438.645 330.293,439.979C331.605,440.744 336.566,470.85 337.012,473.552C337.53,476.696 331.45,483.01 324.782,496.63C320.547,505.279 322.663,506.121 308.284,533.388C304.508,540.55 303.807,514.199 303.761,512.488C303.737,511.59 303.031,485.054 301.456,501.491C298.298,534.432 295.356,534.587 299.271,550.566C301.227,558.551 304.79,556.763 307.306,564.57C320.134,604.38 342.431,618.834 332.503,616.993C303.663,611.645 299.185,605.746 286.448,599.702C282.724,597.935 290.75,618.219 290.724,618.725C290.639,620.412 259.812,605.92 239.435,586.569C221.423,569.462 222.973,568.115 217.419,562.596C214.91,560.103 215.863,563.774 214.131,578.397C213.902,580.332 211.229,580.402 196.858,561.215C179.157,537.583 166.11,488.278 168.216,507.455C168.329,508.491 169.229,516.688 169.178,520.454C169.132,523.832 164.818,518.933 161.299,515.957C161.889,511.667 159.459,509.344 156.491,494.502C153.954,481.817 154.624,481.554 152.519,478.432Z" style="fill:rgb(39,35,47);"/>
        <path d="M359.571,664.204C353.686,663.653 351.913,664.352 351.447,658.504C349.066,628.666 353.145,626.746 335.953,602.176C333.842,599.159 321.316,581.256 312.972,562.294C311.753,559.524 313.779,559.791 337.224,533.272C348.877,520.091 351.164,499.538 352.4,511.522C354.309,530.038 355.905,530.144 361.362,532.804C367.524,535.808 358.691,565.716 373.557,567.059C390.511,568.59 425.376,550.884 429.58,548.749C433.807,546.602 427.143,557.897 437.832,582.329C441.163,589.942 450.36,584.54 449.441,587.492C447.993,592.142 431.572,621.998 438.434,620.141C444.544,618.487 449.613,613.901 446.908,619.624C441.617,630.816 442.979,637.118 437.471,632.537C432.477,628.385 407.921,619.722 400.68,624.744C391.252,631.284 376.636,649.373 374.755,651.701C366.586,661.811 367.884,665.285 360.589,664.229C360.25,664.221 359.91,664.213 359.571,664.204Z" style="fill:rgb(52,47,57);"/>
        <path d="M410.939,759.582C408.619,770.577 408.724,770.453 407.111,781.461C405.645,791.465 372.291,788.092 374.486,773.499C381.964,723.773 379.342,723.636 381.294,683.496C382.125,666.398 384.666,666.946 396.023,654.064C403.042,646.104 406.565,638.046 424.307,645.99C438.157,652.191 436.236,655.461 434.081,670.411C431.839,685.967 418.414,722.733 410.939,759.582Z" style="fill:rgb(56,51,61);"/>
        <path d="M167.214,545.671C174.498,551.854 174.619,551.62 183.241,555.896C184.394,556.468 202.289,586.18 221.599,596.248C224.623,597.825 221.996,585.272 221.728,583.462C219.816,570.559 224.5,589.092 254.691,609.203C267.389,617.661 260.663,621.127 258.504,640.5C258.468,640.817 258.489,642.323 262.488,640.457C267.93,637.918 258.688,654.186 258.078,655.26C256.717,657.657 255.329,659.767 219.538,656.117C213.644,655.516 215.428,652.797 195.334,627.77C196.805,623.947 197.379,609.201 195.541,604.483C193.844,600.126 170.176,565.377 167.214,545.671Z" style="fill:rgb(39,36,47);"/>
        <path d="M319.869,868.377C319.676,860.234 319.772,856.119 314.6,853.271C313.485,852.657 308.592,847.555 325.598,841.782C343.204,835.804 347.383,802.872 341.174,816.272C338.077,822.954 336.417,816.305 337.395,813.472C341.965,800.243 348.1,802.552 350.722,781.56C352.902,764.109 351.669,762.378 354.498,762.654C366.287,763.802 359.221,769.493 357.892,782.413C357.79,783.398 364.618,805.856 390.516,806.081C396.225,806.13 399.063,803.736 399.079,809.512C399.083,810.871 398.938,810.736 398.877,826.502C398.819,841.159 397.588,841.313 401.753,855.426C406.614,871.899 400.658,880.493 399.723,873.447C397.889,859.618 388.226,856.107 384.377,869.458C382.373,876.412 385.243,884.771 381.218,878.729C379.615,876.323 380.357,856.458 384.993,850.887C391.786,842.725 380.084,848.584 377.926,852.722C374.258,859.757 374.975,875.514 375.066,877.508C375.187,880.164 367.355,884.652 368.692,878.533C371.168,867.203 360.305,849.211 353.417,866.456C352.732,868.173 350.142,881.973 349.687,874.432C349.43,870.176 351.493,848.481 361.682,844.888C370.98,841.61 355.412,839.195 349.912,848.76C341.919,862.657 346.142,878.897 343.613,879.764C343.276,879.88 336.648,882.155 339.364,878.431C344.486,871.407 338.104,854.654 331.569,857.876C329.963,858.669 328.703,859.329 329.255,857.568C335.267,838.409 349.795,844.829 345.449,840.562C345.317,840.433 338.766,838.3 333.416,841.337C323.168,847.155 321.641,865.185 321.447,867.477C321.351,868.606 321.025,868.356 319.869,868.377Z" style="fill:rgb(59,53,61);"/>
        <path d="M187.473,785.4C210.715,771.722 202.379,764.456 205.85,754.61C207.067,751.158 231.306,755.684 231.603,756.453C231.923,757.281 231.527,757.247 232.64,767.494C233.131,772.009 224.74,771.468 224.796,784.517C224.872,801.964 234.198,814.331 216.56,815.901C213.396,816.182 211.146,819.582 209.903,818.059C201.431,807.677 213.393,788.711 205.773,799.806C195.366,814.959 211.468,825.562 210.711,828.545C205.436,849.312 201.325,850.465 199.387,851.008C167.982,859.817 166.871,859.052 164.536,857.445C162.701,856.182 169.483,846.178 163.197,838.739C161.25,836.436 158.533,835.878 162.914,830.871C167.836,825.246 181.509,829.915 176.806,824.262C176.307,824.155 175.809,824.049 175.31,823.942C159.044,820.592 158.121,824.335 145.315,845.365C144.631,846.488 142.117,857.996 137.666,854.285C135.974,852.874 147.099,842.872 135.864,833.092C134.844,832.205 137.583,819.127 149.435,820.895C149.958,820.973 160.701,823.619 161.127,820.735C161.143,820.627 161.127,820.735 160.48,819.539C163.596,817.985 172.37,819.454 183.029,795.3C184.83,791.22 184.582,791.218 187.038,787.5C187.132,787.357 187.07,787.344 187.473,785.4Z" style="fill:rgb(44,40,51);"/>
        <path d="M372.888,556.457C372.808,555.809 370.237,538.169 369.478,520.501C369.038,510.253 372.771,511.626 382.601,508.952C443.417,492.405 449.99,463.931 450.839,473.391C454.772,517.191 453.397,519.046 451.073,522.181C436.522,541.815 400.347,553.67 395.425,555.284C375.693,561.751 374.038,560.396 372.888,556.457Z" style="fill:rgb(98,81,90);"/>
        <path d="M414.543,379.513C414.761,379.986 424.235,405.7 425.653,420.438C422.036,417.299 419.883,417.864 419.361,418.001C412.077,419.911 413.937,422.443 416.185,429.576C417.599,434.066 385.315,450.629 378.397,453.067C376.627,453.691 375.713,446.901 372.516,446.396C363.919,445.037 366.391,456.872 364.566,457.641C351.431,463.17 350.715,462.661 350.463,461.518C343.373,429.351 348.447,425.703 350.887,423.948C368.292,411.433 372.577,417.459 414.543,379.513Z" style="fill:rgb(55,50,60);"/>
        <path d="M441.332,485.162C441.525,485.01 445.1,481.322 445.332,483.559C448.804,517.087 448.085,517.992 446.258,520.295C430.869,539.689 379.434,557.651 377.621,552.451C377.33,551.619 372.75,518.432 373.98,516.757C375.124,515.199 382.536,513.448 383.311,513.265C384.03,521.047 384.254,524.634 391.55,521.623C397.973,518.972 393.531,510.217 393.527,510.202C401.078,507.208 401.158,507.745 408.61,504.787C421.395,499.712 428.983,493.264 432.29,492.352C434.095,496.381 436.028,500.773 441.167,497.116C446.926,493.017 441.887,485.942 441.332,485.162Z" style="fill:rgb(54,48,58);"/>
        <path d="M430.53,435.563C433.071,432.939 434.405,431.918 434.714,434.437C435.909,444.199 440.367,463.132 439.507,471.348C438.92,470.65 431.919,462.325 428.281,469.389C425.098,475.569 432.239,478.53 425.239,483.094C412.743,491.241 392.077,500.542 390.985,498.206C388.36,492.589 388.269,490.189 382.533,492.581C375.989,495.31 381.404,502.317 378.427,503.33C370.31,506.093 370.245,505.845 363.15,510.518C360.342,475.502 360.024,475.542 359.833,472.495C359.621,469.099 365.335,469.052 369.367,468.297C369.86,470.934 370.617,481.899 379.223,476.155C382.772,473.787 380.421,467.719 380.413,467.542C380.364,466.465 380.006,466.703 379.516,465.693C390.134,461.435 390.294,461.964 399.369,457.251C413.043,450.15 419.409,444.745 422.025,443.314C423.1,446.383 423.066,446.362 423.174,446.621C425.447,452.083 436.995,451.176 430.53,435.563Z" style="fill:rgb(54,48,58);"/>
        <path d="M678.52,523.613C684.513,523.661 686.178,521.943 688.19,527.598C694.902,546.472 694.128,547.815 692.485,547.717C691.231,547.642 683.202,539.222 686.112,548.631C695.146,577.843 697.068,579.62 694.505,579.565C693.187,579.537 687.319,570.239 688.052,577.54C689.726,594.22 692.572,639.409 723.93,667.015C730.987,673.227 744.635,664.693 737.559,673.545C732.29,680.136 742.92,677.79 752.111,692.683C755.688,698.479 746.673,691.692 746.3,694.446C746.271,694.658 762.789,778.527 768.832,798.412C772.304,809.835 772.257,809.75 773.737,821.556C759.658,814.419 744.448,711.894 736.362,703.634C731.449,698.614 729.8,699.472 728.871,692.419C726.415,673.775 694.057,657.681 685.373,599.52C680.01,563.596 677.594,560.754 680.438,561.831C682.164,562.484 681.728,563.125 683.452,563.685C685.383,564.312 686.504,561.869 675.02,539.746C670.982,531.968 679.512,539.459 682.712,538.646C683.922,538.338 682.869,537.834 678.52,523.613Z" style="fill:rgb(76,66,75);"/>
        <path d="M144.497,350.423C150.431,360.726 150.565,360.678 151.77,361.554C152.102,368.863 152.808,375.841 165.447,377.997C175.359,379.801 171.376,387.524 181.767,397.216C183.569,398.897 190.187,404.95 198.356,401.187C213.987,393.985 215.051,392.766 230.603,400.274C249.299,409.3 255.406,386.936 261.858,378.843C264.605,375.398 276.956,382.992 279.186,362.533C283.238,361.933 280.424,359.057 287.487,350.322C291.36,349.174 294.29,347.271 293.312,349.467C284.308,369.692 244.353,419.194 228.591,423.763C200.686,431.852 188.499,417.841 153.834,375.232C148.425,368.584 134.153,346.294 139.465,348.652C141.911,349.739 141.79,349.812 144.497,350.423Z" style="fill:rgb(196,174,163);"/>
        <path d="M147.228,261.498C149.699,294.238 177.237,285.307 193.065,309.763C203.268,325.529 199.651,347.587 199.644,347.604C198.883,349.628 194.66,339.601 191.235,336.547C181.067,327.481 176.473,331.873 160.249,322.98C157.676,321.57 142.99,313.52 143.213,290.502C143.334,277.988 136.564,272.272 143.943,258.759C148.311,250.762 147.236,261.211 147.228,261.498Z" style="fill:rgb(22,14,25);"/>
        <path d="M284.02,260.538C283.946,256.516 283.322,255.838 284.574,255.808C285.604,255.784 287.328,258.13 287.784,259.088C290.513,264.824 290.885,275.051 288.325,283.447C286.461,289.562 288.323,297.348 285.525,305.509C274.633,337.283 246.891,316.398 233.247,347.383C229.835,355.131 225.601,315.84 246.85,299.937C269.789,282.769 280.736,289.048 284.02,260.538Z" style="fill:rgb(26,15,27);"/>
        <path d="M416.61,274.11C414.829,278.678 420.52,277.015 428.162,288.722C447.997,319.104 448.81,347.579 450.811,356.447C455.967,379.298 537.213,397.303 602.566,392.533C602.365,393.499 602.743,396.255 598.339,398.092C593.302,400.192 491.075,400.19 450.824,371.044C444.407,366.398 445.069,365.39 438.691,333.456C431.641,298.165 406.199,272.008 406.514,271.508C407.569,269.839 408.045,271.162 416.61,274.11Z" style="fill:rgb(66,54,62);"/>
        <path d="M372.892,668.549C374.007,664.928 376.316,657.429 402.741,631.783C409.464,625.258 431.934,636.592 433.353,637.701C435.695,639.532 438.68,650.766 431.306,645.784C420.587,638.541 411.967,638.256 407.42,639.053C404.839,639.505 403.676,639.709 383.96,661.916C377.565,669.12 378.141,673.044 378.069,697.495C377.874,763.413 366.292,771.657 373.905,782.228C386.902,800.275 407.749,784.9 407.074,789.504C405.42,800.786 390.855,799.076 390.51,799.068C369.978,798.629 364.481,781.356 365.207,777.445C371.535,743.38 371.868,710.222 372.892,668.549Z" style="fill:rgb(102,85,92);"/>
        <path d="M165.447,377.997C152.808,375.841 152.102,368.863 151.77,361.554C153.868,351.541 160.544,352.806 163.77,354.72C171.136,359.09 170.136,363.27 172.005,368.643C183.887,402.8 193.606,397.439 211.51,389.517C214.396,388.24 212.086,382.897 211.859,382.372C204.174,372.136 192.908,375.533 197.393,360.431C199.006,354.999 199.432,361.329 199.445,361.514C199.598,363.789 200.757,364.093 200.847,364.215C196.21,371.368 203.623,369.318 209.556,375.452C217.345,383.504 218,375.041 229.395,370.258C229.812,370.083 231.243,369.482 232.443,365.5C232.496,365.323 232.365,365.348 231.385,363.448C231.875,360.916 231.87,356.992 233.197,358.786C234.123,360.039 236.841,369.088 231.205,373.111C226.237,376.659 223.929,375.363 219.212,382.433C217.068,390.729 220.648,390.052 228.648,393.13C241.247,397.977 248.86,399.11 259.27,368.431C259.564,365.762 259.422,365.843 260.149,363.359C266.463,351.135 277.362,349.308 279.186,362.533C276.956,382.992 264.605,375.398 261.858,378.843C255.406,386.936 249.299,409.3 230.603,400.274C215.051,392.766 213.987,393.985 198.356,401.187C190.187,404.95 183.569,398.897 181.767,397.216C171.376,387.524 175.359,379.801 165.447,377.997Z" style="fill:rgb(21,16,27);"/>
        <path d="M182.31,641.567C182.603,641.843 183.207,641.495 183.5,641.771C184.841,643.031 193.837,654.088 195.112,655.767C199.807,661.952 199.431,674.354 191.989,736.538C189.687,755.772 192.092,764.197 179.805,767.737C181.119,735.743 185.673,735.872 182.737,670.49C181.924,652.4 181.928,652.54 182.31,641.567Z" style="fill:rgb(48,44,55);"/>
        <path d="M416.61,274.11C417.616,274.608 427.445,277.753 436.145,292.704C458.283,330.749 447.188,354.145 461.817,364.017C492.476,384.708 554.629,387.644 558.539,388.003C591.448,391.028 596.952,387.341 594.169,376.58C589.747,359.484 580.099,353.835 581.662,352.881C586.788,349.753 606.56,371.021 602.566,392.533C537.213,397.303 455.967,379.298 450.811,356.447C448.81,347.579 447.997,319.104 428.162,288.722C420.52,277.015 414.829,278.678 416.61,274.11Z" style="fill:rgb(105,87,95);"/>
        <path d="M258.689,215.369C257.616,209.379 272.059,187.565 281.678,178.71C294.584,166.829 294.784,232.211 284.368,240.915C282.765,238.823 282.686,238.975 281.165,236.736C272.553,224.063 262.793,219.651 258.689,215.369Z" style="fill:rgb(20,12,24);"/>
        <path d="M172.378,215.399C163.832,222.986 159.638,221.563 147.529,240.537C136.735,239.296 135.602,166.645 149.26,178.794C159.076,187.525 173.062,209.056 172.378,215.399Z" style="fill:rgb(20,12,26);"/>
        <path d="M176.065,627.5C176.31,624.461 175.994,624.472 176.688,623.626C178.682,621.197 182.545,619.439 205.067,650.796C210.389,658.206 209.842,660.561 197.079,766.453C195.955,775.78 175.799,784.483 173.492,780.506C168.258,771.479 191.363,773.832 193.043,758.463C200.065,694.211 200.61,685.819 201.022,679.481C202.584,655.431 199.943,655.096 184.096,636.86C179.895,632.026 177.276,633.824 176.065,627.5Z" style="fill:rgb(103,86,92);"/>
        <path d="M471.946,408.468C467.622,389.968 467.016,389.27 468.55,388.837C471.268,388.07 470.744,391.06 502.529,398.419C504.594,398.897 505.879,399.194 507.11,424.52C507.43,431.111 508.136,437.496 505.805,443.552C504.677,442.115 505.432,440.514 500.88,440.579C500.254,431.562 493.656,436.301 493.432,433.526C492.678,424.195 489.569,423.251 481.202,427.308C476.47,414.368 477.39,396.321 471.946,408.468Z" style="fill:rgb(56,50,60);"/>
        <path d="M317.122,284.364C323.306,294.781 336.877,297.024 326.549,297.933C316.963,298.776 311.21,298.729 311.803,300.433C314.978,309.556 335.246,329.619 330.457,330.358C322.792,331.54 319.278,330.62 309.573,341.573C305.011,346.722 310.692,345.922 316.248,349.947C319.38,352.216 319.245,352.271 319.53,352.437C319.72,352.549 319.701,352.339 321.919,351.065C322.146,351.277 325.543,354.441 323.53,354.607C319.477,354.943 319.551,354.89 315.618,355.96C298.224,360.689 288.292,371.171 292.692,364.584C308.088,341.537 306.337,315.777 304.99,297.461C304.671,293.129 306.69,294.057 317.122,284.364Z" style="fill:rgb(53,47,57);"/>
        <path d="M114.244,285.56C115.174,286.148 115.035,286.313 125.221,293.839C128.691,296.402 122.027,315.212 128.186,341.577C132.913,361.814 144.034,370.571 136.69,366.116C123.55,358.145 123.469,358.225 110.507,354.854C123.117,343.867 124.831,343.98 123.553,341.463C119.781,334.038 102.577,330.714 100.572,330.326C95.538,329.354 116.551,308.851 120.128,300.358C121.966,295.994 103.19,299.867 101.519,297.49C101.063,296.842 108.778,290.786 114.244,285.56Z" style="fill:rgb(54,49,59);"/>
        <path d="M417.542,368.494C417.076,369.013 416.61,369.532 416.144,370.052C403.403,393.432 350.199,420.756 348.731,421.834C337.544,430.043 348.406,456.273 349.024,471.512C350.582,509.916 341.557,459.717 341.343,458.529C337.958,439.699 336.231,434.774 335.953,433.429C332.782,418.068 340.331,418.55 365.227,404.031C411.434,377.083 409.734,355.607 417.542,368.494Z" style="fill:rgb(101,85,94);"/>
        <path d="M454.657,320.401C474.754,330.391 477.626,329.056 482.962,346.349C486.086,356.478 489.075,359.102 489.993,359.909L490.527,360.505C490.64,361.889 492.608,372.564 489.478,371.63C482.743,369.621 461.71,360.606 460.4,356.54C459.577,353.984 460.209,353.877 454.342,323.529C454.342,323.529 454.632,320.651 454.657,320.401Z" style="fill:rgb(54,48,59);"/>
        <path d="M492.872,340.257C493.588,340.09 512.604,340.644 519.057,350.786C522.257,355.816 526.409,366.826 526.95,368.261C527.049,368.524 527.149,368.428 529.643,370.514C530.076,374.611 531.536,381.166 528.498,380.726C525.949,380.358 498.327,376.363 497.084,373.717C495.96,371.325 498.809,367.137 492.872,340.257Z" style="fill:rgb(56,50,60);"/>
        <path d="M430.53,435.563C429.884,436.223 429.237,436.883 428.591,437.543C427.239,438.611 425.886,439.679 424.534,440.747C423.043,441.796 423.152,441.787 422.025,443.314C419.409,444.745 413.043,450.15 399.369,457.251C390.294,461.964 390.134,461.435 379.516,465.693C374.747,467.543 380.015,472.984 375.503,472.969C373.926,472.963 373.513,470.757 373.466,470.506C372.935,467.671 372.209,467.817 369.367,468.297C365.335,469.052 359.621,469.099 359.833,472.495C360.024,475.542 360.342,475.502 363.15,510.518C363.21,515.153 364.543,531.617 361.84,525.302C361.621,524.788 351.895,469.379 357.672,466.846C365.185,463.551 383.048,463.377 415.771,440.884C433.846,428.459 437.295,417.71 438.679,426.473C444.808,465.258 445.414,465.712 443.243,468.282C441.631,470.189 441.732,470.184 439.507,471.348C440.367,463.132 435.909,444.199 434.714,434.437C434.405,431.918 433.071,432.939 430.53,435.563Z" style="fill:rgb(99,82,91);"/>
        <path d="M169.298,229.42C157.826,267.288 200.781,262.273 197.001,286.431C194.467,302.628 169.896,293.111 176.499,280.5C179.375,275.009 188.929,282.625 185.176,277.684C182.192,273.754 148.166,263.515 160.634,235.568C162.864,230.569 174.753,217.686 169.298,229.42Z" style="fill:rgb(34,17,23);"/>
        <path d="M137.529,175.549C139.594,172.499 142.462,170.406 142.462,170.406C149.369,166.081 181.561,208.002 176.351,213.368C174.696,215.072 174.643,214.998 172.378,215.399C173.062,209.056 159.076,187.525 149.26,178.794C135.602,166.645 136.735,239.296 147.529,240.537C141.713,255.445 137.675,260.057 136.425,261.484C139.325,234.849 130.948,235.179 132.291,208.493C133.563,183.204 133.845,180.989 137.529,175.549Z" style="fill:rgb(198,176,165);"/>
        <path d="M246.442,279.16C247.164,278.87 254.099,276.077 255.116,283.538C257.377,300.122 224.908,298.991 235.781,276.65C240.971,265.984 273.31,255.694 261.776,229.394C256.783,218.01 267.329,229.779 270.166,235.66C284.77,265.943 240.499,275.221 246.442,279.16Z" style="fill:rgb(41,19,26);"/>
        <path d="M292.733,173.433C293.655,176.62 299.456,196.675 298.456,214.497C297.184,237.168 293.118,236.744 293.891,259.414C287.882,254.67 284.367,241.707 284.368,240.915C294.784,232.211 294.584,166.829 281.678,178.71C272.059,187.565 257.616,209.379 258.689,215.369C256.293,214.993 256.244,215.182 254.608,213.409C251.702,210.262 263.617,190.958 272.568,181.566C285.816,167.665 288.149,171.098 292.733,173.433Z" style="fill:rgb(196,175,165);"/>
        <path d="M214.53,203.599C215.693,204.479 224.096,221.954 216.282,230.302C210.353,236.635 189.931,241.269 200.926,261.268C201.803,262.863 211.522,276.186 209.21,291.373C208.62,295.25 205.269,284.348 205.064,283.679C195.961,266.133 178.664,255.676 190.894,237.773C194.247,232.863 203.508,228.394 207.096,226.022C211.747,222.946 213.572,206.365 213.769,204.579L214.53,203.599Z" style="fill:rgb(34,16,21);"/>
        <path d="M167.214,545.671C170.176,565.377 193.844,600.126 195.541,604.483C197.379,609.201 196.805,623.947 195.334,627.77C192.234,623.798 189.757,621.292 189.235,620.764C181.96,613.405 189.501,610.445 185.001,602.798C182.19,598.02 158.279,557.389 156.78,539.512C156.668,538.171 161.367,537.368 167.214,545.671Z" style="fill:rgb(68,62,69);"/>
        <path d="M529.68,349.328C535.093,348.941 548.172,351.23 552.083,356.817C555.38,361.528 559.983,375.095 561.889,372.538C562.101,372.253 561.465,371.778 561.678,371.493C561.874,372.369 563.626,380.185 563.896,382.497C564.132,384.52 562.726,384.648 538.437,381.796C535.779,381.484 536.404,364.965 529.68,349.328Z" style="fill:rgb(55,50,59);"/>
        <path d="M317.157,174.445C319.276,166.202 325.13,151.963 325.233,156.599C326.278,203.413 318.434,205.163 322.309,206.8C325.883,208.309 333.941,202.029 331.025,210.319C328.375,217.849 320.72,220.598 328.554,222.347C333.723,223.501 316.089,243.279 315.775,243.755C314.59,245.555 313.754,245.288 312.919,243.31C309.276,234.68 313.392,234.917 317.3,226.411C320.066,220.389 313.567,223.019 312.462,221.524C311.676,220.46 312.783,220.481 316.559,205.497C316.951,203.044 320.213,182.61 317.157,174.445Z" style="fill:rgb(138,95,106);"/>
        <path d="M114.244,285.56C108.778,290.786 101.063,296.842 101.519,297.49C103.19,299.867 121.966,295.994 120.128,300.358C116.551,308.851 95.538,329.354 100.572,330.326C102.577,330.714 119.781,334.038 123.553,341.463C124.831,343.98 123.117,343.867 110.507,354.854C108.279,354.438 106.892,354.179 108.516,352.513C115.051,345.811 122.641,343.989 114.259,339.998C102.924,334.601 91.799,335.541 91.495,335.518C88.481,335.293 95.273,321.564 109.769,306.75C116.161,300.218 105.256,305.825 89.797,298.064C87.966,297.144 88.61,296.271 90.538,295.578C98.842,292.596 108.407,283.114 109.751,281.782C111.336,280.212 114.02,285.148 114.244,285.56Z" style="fill:rgb(95,82,90);"/>
        <path d="M317.122,284.364C319.056,281.68 318.965,281.6 319.42,281.385C322.171,280.088 321.699,281.944 323.883,284.108C334.825,294.956 346.167,295.763 342.178,298.037C330.605,304.638 320.217,303.295 319.873,303.993C318.983,305.8 320.184,305.57 325.186,310.804C334.979,321.051 341.113,333.857 341.026,334.495C340.745,336.567 339.847,335.46 335.503,335.594C319.188,336.095 311.22,343.212 313.832,345.141C317.927,348.165 320.791,350.012 321.919,351.065C328.173,356.909 320.858,353.687 319.53,352.437C319.29,352.212 319.38,352.216 316.248,349.947C310.692,345.922 305.011,346.722 309.573,341.573C319.278,330.62 322.792,331.54 330.457,330.358C335.246,329.619 314.978,309.556 311.803,300.433C311.21,298.729 316.963,298.776 326.549,297.933C336.877,297.024 323.306,294.781 317.122,284.364Z" style="fill:rgb(93,80,87);"/>
        <path d="M182.31,641.567C181.928,652.54 181.924,652.4 182.737,670.49C185.673,735.872 181.119,735.743 179.805,767.737C174.081,772.197 176.258,764.871 176.326,764.471C183.507,722.411 175.869,671.107 176.106,637.419C176.11,636.822 178.453,633.538 182.31,641.567Z" style="fill:rgb(94,79,89);"/>
        <path d="M281.668,122.548C279.302,123.608 279.581,123.9 277.43,125.4C257.01,139.639 222.262,135.544 206.416,171.408C205.864,171.42 205.313,171.432 204.761,171.445C206.116,165.294 206.081,165.394 206.327,164.425C210.361,154.502 210.098,154.412 211.864,151.759C225.338,131.511 260.827,127.371 262.389,127.021C278.246,123.462 282.576,117.662 281.668,122.548Z" style="fill:rgb(93,80,89);"/>
        <path d="M113.674,174.481C113.246,176.923 110.958,189.974 114.275,205.474C116.52,213.19 116.523,213.101 119.497,220.501C120.709,223.515 118.617,222.606 115.429,223.343C114.957,223.452 113.149,224.013 116.901,229.211C121.8,235.998 122.52,236.962 118.025,244.012C116.673,246.131 105.652,226.23 104.878,221.45C104.213,217.336 114.611,222.844 112.745,215.445C107.169,193.339 105.92,191.273 105.837,156.594C105.823,150.407 113.116,170.236 113.674,174.481Z" style="fill:rgb(138,96,108);"/>
        <path d="M550.969,412.07C552.841,414.988 554.663,418.953 555.057,419.709C562.792,434.537 563.696,434.078 563.612,435.513C563.536,436.812 554.314,436.488 553.502,436.459C552.566,436.426 545.336,436.172 544.077,429.529C543.681,427.436 552.581,428.728 550.205,426.77C540.716,418.953 520.138,422.355 517.541,422.784C512.639,423.594 513.355,421.46 512.676,416.509C513.789,416.076 515.1,415.566 527.519,414.986C548.811,413.992 548.855,413.527 550.969,412.07Z" style="fill:rgb(163,74,74);"/>
        <path d="M339.272,518.231C339.078,521.748 338.494,521.51 336.824,524.587C333.044,530.11 314.305,554.04 310.408,555.051C299.471,557.89 315.452,531.565 320.1,522.373C322.299,523.154 322.236,522.423 324.603,521.925C325.787,521.676 330.478,520.69 339.272,518.231Z" style="fill:rgb(118,53,66);"/>
        <path d="M550.969,412.07C548.855,413.527 548.811,413.992 527.519,414.986C515.1,415.566 513.789,416.076 512.676,416.509C512.098,412.077 510.217,400.836 511.408,400.357C512.583,399.885 543.762,403.777 546.569,404.127C548.366,404.352 548.56,404.964 550.969,412.07Z" style="fill:rgb(116,50,66);"/>
        <path d="M166.286,231.75C165.881,232.456 164.791,240.034 165.099,242.55C165.812,255.248 174.888,261.72 180.733,266.148C183.64,268.35 183.849,267.908 186.648,270.311C205.795,286.745 186.704,299.733 178.927,288.267C177.546,286.233 176.487,278.258 183.644,281.108C190.806,283.959 191.176,277.428 181.855,272.281C180.196,271.365 158.966,263.544 160.623,244.508C161.58,233.515 168.384,228.094 166.286,231.75Z" style="fill:rgb(160,65,66);"/>
        <path d="M225.996,283.708C225.788,284.369 222.491,294.884 221.883,291.33C217.754,267.197 240.253,259.994 232.052,238.697C227.589,227.107 239.175,237.835 240.289,239.643C251.345,257.572 235.481,264.608 225.996,283.708Z" style="fill:rgb(43,20,25);"/>
        <path d="M244.527,281.874C256.574,275.143 254.012,295.168 242.457,292.729C236.427,291.455 235.8,287.713 235.813,284.191C235.868,269.366 260.281,266.218 265.722,245.539C268.398,235.37 261.837,226.354 267.334,234.616C277.115,249.317 266.257,263.648 252.426,270.365C249.976,271.555 246.707,273.88 246.268,274.263C242.53,277.528 240.896,278.49 244.527,281.874Z" style="fill:rgb(161,67,68);"/>
        <path d="M670.602,498.354C670.788,496.459 670.701,496.476 669.076,487.563C663.115,454.873 644.712,428.528 645.5,425.408C645.697,424.626 649.215,427.956 649.739,429.471C655.588,446.353 670.544,453.691 679.253,492.553C679.349,492.984 684.452,504.198 670.602,498.354Z" style="fill:rgb(91,79,87);"/>
        <path d="M201.466,407.606C199.421,409.138 199.711,409.284 198.689,411.704C196.043,409.488 193.078,409.841 195.562,407.562C199.566,403.889 205.645,401.149 206.592,400.722C222.796,393.42 239.322,410.448 239.322,410.474C239.313,411 238.639,410.335 234.335,414.762C231.787,412.09 232.26,411.897 230.297,408.662C225.086,400.073 229.588,412.189 229.696,412.479C229.198,412.678 229.182,413.531 228.683,413.73C218.553,417.766 203.401,412.252 201.338,411.502C201.541,410.394 201.744,409.287 201.946,408.179C201.786,407.988 201.626,407.797 201.466,407.606Z" style="fill:rgb(239,225,210);"/>
        <path d="M564.509,358.486C579.699,356.205 585.589,369.782 586.402,371.657C586.981,372.993 587.326,372.06 588.593,371.469C590.657,379.072 591.064,378.984 590.923,381.559C590.742,384.849 571.224,386.139 570.72,383.435C570.343,381.413 568.771,372.977 564.509,358.486Z" style="fill:rgb(54,48,58);"/>
        <path d="M123.872,385.399C126.798,376.371 129.839,379.676 129.894,380.305C130.423,386.423 129.795,418.519 141.67,443.439C143.399,447.069 143.478,446.954 146.463,449.538C146.748,449.784 147.009,450.126 147.054,450.5C147.133,451.167 146.512,451.901 146.816,452.5C147.124,453.106 148.278,452.909 148.586,453.515C147.93,455.963 147.585,460.015 145.698,457.33C121.079,422.3 123.911,391.073 123.872,385.399Z" style="fill:rgb(96,81,89);"/>
        <path d="M288.691,200.468C288.832,203.201 289.939,210.577 287.714,223.542C285.731,235.09 284.159,235.157 283.54,234.456C277.009,227.068 277.661,226.603 270.123,218.754C281.025,194.128 285.251,195.76 286.4,197.562C287.424,199.166 287.508,198.967 288.691,200.468Z" style="fill:rgb(171,71,69);"/>
        <path d="M142.176,202.163C142.608,201.633 143.559,200.03 143.991,199.5C144.423,198.97 144.281,198.154 144.56,197.53C147.399,191.158 159.159,211.059 159.93,219.81C147.15,232.979 146.997,237.338 145.951,234.179C141.383,220.38 142.068,204.876 142.176,202.163Z" style="fill:rgb(171,70,69);"/>
        <path d="M110.215,140.848C123.169,161.214 134.889,163.623 133.61,167.528C127.349,186.651 127.929,188.408 126.534,187.451C125.469,186.721 115.656,163.506 114.766,161.399C106.682,142.276 108.532,140.892 110.215,140.848Z" style="fill:rgb(52,49,58);"/>
        <path d="M372.405,216.825C395.633,220.749 400.181,249.333 430.486,254.546C432.509,254.894 433.02,254.411 433.004,255.602C432.986,256.953 432.372,256.482 427.52,257.628C416.027,253.698 409.866,256.361 392.572,238.435C387.073,232.735 380.906,225.718 371.739,219.217C370.216,218.136 370.622,217.474 372.405,216.825Z" style="fill:rgb(93,80,87);"/>
        <path d="M317.157,174.445C320.213,182.61 316.951,203.044 316.559,205.497C315.16,206.262 308.063,210.144 308.064,223.518C308.064,227.019 313.34,225.44 311.442,228.469C308.595,233.013 308.816,233.142 308.434,233.402C303.547,236.727 306.032,220.361 305.29,202.506C305.127,198.606 312.862,179.293 317.157,174.445Z" style="fill:rgb(82,56,70);"/>
        <path d="M303.788,186.114C303.215,184.761 303.953,184.539 298.257,168.595C296.835,164.617 306.791,159.186 318.13,144.159C326.055,133.658 318.394,157.537 310.148,174.339C306.672,181.42 306.592,181.343 305.705,183.612C305.116,185.117 304.797,184.797 303.788,186.114Z" style="fill:rgb(52,47,57);"/>
        <path d="M142.176,202.163C142.254,200.613 143.336,177.421 148.1,181.977C155.512,189.065 171.018,211.482 167.379,214.379C166.802,214.839 166.827,214.781 159.93,219.81C159.159,211.059 147.399,191.158 144.56,197.53C144.281,198.154 144.423,198.97 143.991,199.5C143.559,200.03 142.608,201.633 142.176,202.163Z" style="fill:rgb(113,50,61);"/>
        <path d="M113.674,174.481C116.61,177.141 125.89,198.104 125.912,203.472C125.923,206.151 125.877,208.83 125.865,211.51C125.863,211.961 128.157,243.53 121.571,228.477C120.703,226.492 125.307,227.294 124.104,221.76C121.704,210.716 115.518,206.352 114.275,205.474C110.958,189.974 113.246,176.923 113.674,174.481Z" style="fill:rgb(81,55,69);"/>
        <path d="M288.691,200.468C287.508,198.967 287.424,199.166 286.4,197.562C285.251,195.76 281.025,194.128 270.123,218.754C267.408,216.983 267.407,217.186 264.705,215.22C258.382,210.617 280.7,183.018 283.811,180.998C285.158,180.123 287.294,180.658 288.691,200.468Z" style="fill:rgb(114,50,60);"/>
        <path d="M454.657,320.401C454.293,319.667 450.883,312.791 451.765,310.578C452.711,308.209 453.342,310.178 456.738,312.085C467.401,318.071 484.715,318.973 490.4,359.478L489.993,359.909C489.075,359.102 486.086,356.478 482.962,346.349C477.626,329.056 474.754,330.391 454.657,320.401Z" style="fill:rgb(100,86,94);"/>
        <path d="M214.639,210.359C214.729,207.733 216.418,213.072 216.492,213.505C217.012,216.556 219.488,227.506 211.505,231.506C188.847,242.861 196.41,255.275 197.195,258.607C197.581,260.242 204.362,270.72 205.797,274.589C208.325,281.407 208.787,289.573 207.862,286.705C202.803,271.027 196.065,269.998 190.538,257.486C188.03,251.807 189.331,242.254 194.809,236.761C204.06,227.487 213.88,232.467 214.639,210.359Z" style="fill:rgb(156,65,66);"/>
        <path d="M333.947,165.368C333.271,159.014 331.148,157.166 334.483,157.176C336.047,157.18 363.45,172.466 385.517,170.777C389.072,170.505 392.587,169.211 389.968,171.634C388.529,172.964 386.596,174.233 385.773,175.841C383.637,174.504 383.68,174.359 383.466,174.397C361.943,178.211 341.262,166.947 333.947,165.368Z" style="fill:rgb(91,79,86);"/>
        <path d="M260.149,363.359C259.422,365.843 259.564,365.762 259.27,368.431C248.86,399.11 241.247,397.977 228.648,393.13C220.648,390.052 217.068,390.729 219.212,382.433C232.942,391.113 238.885,394.492 255.114,369.262C257.834,365.033 257.874,364.031 260.149,363.359Z" style="fill:rgb(196,174,164);"/>
        <path d="M143.645,277.454C141.611,270.416 145.484,260.21 145.419,263.101C145.203,272.742 150.489,278.825 151.201,279.734C159.309,290.077 164.66,289.983 172.537,294.837C173.937,295.699 181.889,299.215 188.19,306.77C193.942,313.666 197.081,323.886 196.789,324.671C196.586,325.219 195.505,325.052 195.301,325.6C181.418,288.468 150.731,301.982 143.645,277.454Z" style="fill:rgb(157,65,66);"/>
        <path d="M286.095,262.493C286.356,259.588 287.342,263.691 287.392,264.554C288.722,287.799 283.381,287.561 261.654,297.859C244.069,306.195 239.495,315.606 235.771,324.631C235.41,324.07 234.464,324.085 234.103,323.523C233.352,322.353 240.847,308.577 244.689,304.688C249.879,299.435 269.865,288.839 272.337,287.279C285.07,279.237 285.608,267.913 286.095,262.493Z" style="fill:rgb(152,63,65);"/>
        <path d="M492.872,340.257C491.851,338.017 487.503,330.467 490.43,331.037C512.118,335.262 513.527,334.138 518.025,341.8C526.652,356.494 528.52,365.149 529.643,370.514C527.149,368.428 527.049,368.524 526.95,368.261C526.409,366.826 522.257,355.816 519.057,350.786C512.604,340.644 493.588,340.09 492.872,340.257Z" style="fill:rgb(102,88,95);"/>
        <path d="M133.395,296.5C133.641,296.48 134.556,301.059 134.625,301.638C135.977,312.827 140.5,317.852 141.103,318.744C152.622,335.775 172.311,328.724 177.626,345.487C178.108,347.01 175.04,341.87 167.366,337.674C164.77,336.255 155.977,334.87 154.488,334.584C123.929,328.713 133.255,296.512 133.395,296.5Z" style="fill:rgb(158,65,66);"/>
        <path d="M253.726,344.646C259.133,331.686 271.792,333.171 282.574,326.627C302.603,314.468 294.541,275.362 298.151,298.603C300.433,313.289 297.308,318.217 296.048,320.33C283.713,341.019 267.743,328.885 253.726,344.646Z" style="fill:rgb(156,63,65);"/>
        <path d="M611.374,385.559C610.171,379.904 609.949,379.973 610.077,378.357C610.106,377.982 610.358,377.054 614.719,379.065C618.636,380.87 636.621,388.46 640.322,390.729C644.611,393.359 626.866,399.722 610.812,396.029C614.561,393.079 618.172,393.969 620.493,393.478C629.649,391.541 615.765,385.78 611.374,385.559Z" style="fill:rgb(105,88,96);"/>
        <path d="M172.005,368.643C173.03,368.959 172.957,368.204 173.916,368.5C174.017,368.531 174.292,368.616 174.784,369.5C190.118,397.04 197.403,390.544 211.859,382.372C212.086,382.897 214.396,388.24 211.51,389.517C193.606,397.439 182.352,403.296 172.005,368.643Z" style="fill:rgb(195,171,160);"/>
        <path d="M215.099,258.609C212.294,258.671 207.442,256.973 206.387,252.53C206.202,251.752 205.028,246.809 208.857,242.833C220.37,230.879 235.805,258.155 215.099,258.609Z" style="fill:rgb(41,20,29);"/>
        <path d="M204.302,137.347C193.331,147.172 184.681,171.522 184.51,171.531C184.141,171.551 183.959,171.561 181.056,168.463C185.424,145.407 198.721,134.128 206.81,127.937C214.246,122.247 206.702,135.932 204.302,137.347Z" style="fill:rgb(89,77,85);"/>
        <path d="M578.044,417.687C580.365,414.904 582.074,416.874 587.485,417.602C594.245,418.511 594.129,417.644 594.268,417.627C598.231,425.862 598.895,425.322 603.463,432.516C604.657,434.396 599.507,434.215 591.502,434.006C586.441,433.874 586.869,432.454 578.044,417.687Z" style="fill:rgb(166,75,74);"/>
        <path d="M417.542,368.494C418.131,369.624 432.232,416.808 430.232,419.307C428.164,421.891 427.197,423.337 425.653,420.438C424.235,405.7 414.761,379.986 414.543,379.513C418.289,372.63 417.237,372.291 416.144,370.052C416.61,369.532 417.076,369.013 417.542,368.494Z" style="fill:rgb(98,82,91);"/>
        <path d="M187.473,785.4C187.07,787.344 187.132,787.357 187.038,787.5C184.582,791.218 184.83,791.22 183.029,795.3C172.37,819.454 163.596,817.985 160.48,819.539C155.927,817.208 159.936,816.318 163.412,813.397C169.889,807.956 174.815,796.159 175.506,794.503C178.588,787.123 180.169,788.52 187.473,785.4Z" style="fill:rgb(67,60,69);"/>
        <path d="M152.519,478.432C154.624,481.554 153.954,481.817 156.491,494.502C159.459,509.344 161.889,511.667 161.299,515.957C153.518,509.614 153.429,509.744 152.785,509.156C148.508,505.257 148.07,477.371 148.341,476.427C148.443,476.07 149.11,474.695 152.519,478.432Z" style="fill:rgb(58,53,62);"/>
        <path d="M471.946,408.468C477.39,396.321 476.47,414.368 481.202,427.308C477.833,432.121 475.972,432.148 478.252,437.607C478.605,438.453 484.097,451.608 478.686,449.06C470.504,445.207 474.416,436.3 471.946,408.468Z" style="fill:rgb(99,84,91);"/>
        <path d="M146.733,290.065C151.094,297.598 149.476,313.605 171.48,321.552C179.904,324.595 192.739,327.702 195.984,336.327C196.787,338.465 198.059,344.225 194.339,336.875C190.454,329.201 168.627,324.867 166.556,323.352C166.114,323.028 159.965,320.53 157.892,318.751C156.338,317.418 146.674,312.181 145.629,292.509C145.551,291.043 146.151,291.353 146.733,290.065Z" style="fill:rgb(154,61,65);"/>
        <path d="M235.048,338.107C237.05,330.941 241.552,328.084 249.7,324.948C268.013,317.899 274.172,321.441 282.894,292.65C286.447,280.921 286.859,305.792 277.284,315.322C272.142,320.44 267.613,322.044 265.677,322.932C260.329,325.387 260.219,324.857 254.537,326.614C239.919,331.134 239.085,334.766 238.203,335.714C235.676,338.428 233.13,344.973 235.048,338.107Z" style="fill:rgb(156,63,65);"/>
        <path d="M334.297,489.365C336.538,484.121 336.469,484.127 336.718,483.702C337.659,482.096 342.731,488.411 345.728,491.26C346.847,492.323 349.616,492.3 350.111,494.592C351.757,502.213 349.937,502.085 345.514,508.516C343.03,504.11 341.813,507.164 335.522,508.622C327.34,510.519 326.54,510.598 325.745,510.676C326.084,508.596 326.076,508.609 326.111,508.43C326.202,507.956 326.271,508.067 326.38,507.504C327.495,507.07 337.986,502.992 340.292,502.022C350.53,497.712 335.293,489.877 334.297,489.365Z" style="fill:rgb(104,50,62);"/>
        <path d="M348.597,192.341C365.79,193.77 380.358,195.853 396.857,208.052C405.494,214.438 394.732,211.971 391.438,211.728C369.978,192.256 329.72,194.728 348.597,192.341Z" style="fill:rgb(86,74,81);"/>
        <path d="M529.68,349.328C528.369,346.963 528.361,347.131 527.1,344.671C524.237,339.088 529.363,342.246 535.558,343.023C542.414,343.882 551.58,339.433 561.678,371.493C561.465,371.778 562.101,372.253 561.889,372.538C559.983,375.095 555.38,361.528 552.083,356.817C548.172,351.23 535.093,348.941 529.68,349.328Z" style="fill:rgb(101,87,94);"/>
        <path d="M300.635,151.812C291.58,149.662 268.935,153.453 257.448,158.308C246.789,162.814 260.396,149.312 278.466,147.239C287.425,146.212 307.294,145.729 304.06,149.158C302.566,150.743 302.53,150.547 300.635,151.812Z" style="fill:rgb(93,81,88);"/>
        <path d="M120.262,260.642C118.537,255.99 120.531,253.306 122.986,247.73C123.315,246.98 128.717,234.71 129.22,239.618C130.498,252.082 131.295,252.007 129.7,264.536C128.554,273.539 124.372,266.793 120.262,260.642Z" style="fill:rgb(52,49,58);"/>
        <path d="M300.109,255.564C300.133,254.361 300.251,248.473 301.875,240.627C303.021,235.092 309.979,251.324 311.461,256.506C312.624,260.576 304.584,268.322 303.57,268.641C300.932,269.471 300.721,260.758 300.109,255.564Z" style="fill:rgb(47,43,54);"/>
        <path d="M345.514,508.516C340.439,510.524 337.057,511.139 340.444,512.587C344.099,514.148 341.943,515.332 339.272,518.231C330.478,520.69 325.787,521.676 324.603,521.925C322.236,522.423 322.299,523.154 320.1,522.373C325.055,510.706 325.544,511.004 325.745,510.676C326.54,510.598 327.34,510.519 335.522,508.622C341.813,507.164 343.03,504.11 345.514,508.516Z" style="fill:rgb(163,73,75);"/>
        <path d="M578.044,417.687C572.265,407.179 572.099,407.399 571.736,406.433C571.265,405.179 572.281,404.652 588.474,405.85C590.269,405.983 590.675,406.229 594.268,417.627C594.129,417.644 594.245,418.511 587.485,417.602C582.074,416.874 580.365,414.904 578.044,417.687Z" style="fill:rgb(115,51,64);"/>
        <path d="M253.366,308.303C261.732,303.017 271.14,299.327 269.526,303.508C266.358,311.718 261.527,317.8 246.46,318.742C245.461,318.805 242.952,316.409 253.366,308.303Z" style="fill:rgb(253,215,145);"/>
        <path d="M177.675,308.233C188.108,316.518 185.555,318.915 184.548,318.834C161.95,317.007 160.391,300.736 162.49,301.269C168.138,302.706 176.519,307.562 177.675,308.233Z" style="fill:rgb(253,218,146);"/>
        <path d="M231.385,363.448C232.365,365.348 232.496,365.323 232.443,365.5C231.243,369.482 229.812,370.083 229.395,370.258C218,375.041 217.345,383.504 209.556,375.452C203.623,369.318 196.21,371.368 200.847,364.215C212.728,372.441 218.496,372.663 231.385,363.448Z" style="fill:rgb(121,98,99);"/>
        <path d="M129.921,448.474C138.631,462.358 140.941,462.194 139.715,478.59C139.63,479.736 137.515,480.581 129.321,468.679C132.659,462.979 126.97,462.264 129.921,448.474Z" style="fill:rgb(45,41,52);"/>
        <path d="M223.619,284.948C222.1,289.573 223.436,280.198 224.726,276.585C227.124,269.867 241.178,251.617 234.334,238.532C230.407,231.024 247.179,244.407 239.161,260.339C236.071,266.478 226.201,277.085 223.619,284.948Z" style="fill:rgb(152,62,65);"/>
        <path d="M114.639,364.328C113.581,370.388 108.108,389.641 112.062,395.16C109.157,398.409 106.93,403.118 106.393,399.537C104.732,388.469 106.667,376.552 106.987,374.581C108.298,366.507 106.786,362 114.639,364.328Z" style="fill:rgb(93,79,88);"/>
        <path d="M456.987,400.472C454.316,388.652 453.525,389.012 451.47,381.503C450.707,378.717 455.971,382.314 457.23,382.993C463.563,386.405 463.587,390.425 466.023,409.577C465.189,409.539 464.083,409.488 459.57,401.376C459.57,401.376 457.193,400.544 456.987,400.472Z" style="fill:rgb(113,48,65);"/>
        <path d="M491.707,477.813L492.605,477.3C492.988,478.211 493.292,478.934 490.342,489.454C489.906,491.008 488.086,497.5 476.369,504.01C473.785,505.446 477.022,491.381 479.585,489.625C486.644,484.789 486.348,484.543 491.707,477.813Z" style="fill:rgb(122,97,94);"/>
        <path d="M328.274,867.412C335.94,851.773 338.197,872.997 336.213,875.265C330.873,881.37 331.894,881.912 328.272,887.271C327.382,888.587 322.429,887.238 328.274,867.412Z" style="fill:rgb(161,139,132);"/>
        <path d="M647.519,497.485C649.615,501.281 657.753,513.474 652.59,511.181C642.483,506.692 640.487,506.969 638.76,501.398C636.494,494.086 632.025,487.346 638.538,491.438C645.738,495.962 645.899,495.729 647.519,497.485Z" style="fill:rgb(121,96,94);"/>
        <path d="M594.321,450.889C600.735,458.954 602.796,458.16 603.909,468.464C604.405,473.056 607.719,482.364 601.984,476.008C595.607,468.94 594.249,469.553 593.994,465.434C593.164,452.034 593.576,451.984 594.321,450.889Z" style="fill:rgb(125,99,97);"/>
        <path d="M356.92,891.14C356.391,889.065 352.008,871.856 359.494,864.493C360.532,863.472 367.964,869.821 361.694,883.602C358.683,890.221 358.772,890.412 356.92,891.14Z" style="fill:rgb(162,142,135);"/>
        <path d="M480.077,479.431C481.027,475.313 479.929,474.709 483.116,472.016C489.847,466.328 493.768,455.83 494.215,460.544C495.408,473.11 486.792,480.431 481.237,485.072C478.322,487.507 479.979,479.881 480.077,479.431Z" style="fill:rgb(127,102,99);"/>
        <path d="M213.794,256.265C201.172,251.121 214.72,235.254 221.307,245.643C226.242,253.427 217.526,257.785 213.794,256.265Z" style="fill:rgb(168,72,71);"/>
        <path d="M334.297,489.365C335.293,489.877 350.53,497.712 340.292,502.022C337.986,502.992 327.495,507.07 326.38,507.504C327.303,504.514 326.872,502.64 334.297,489.365Z" style="fill:rgb(164,74,75);"/>
        <path d="M468.121,527.365C468.271,527.01 469.078,524.054 470.474,523.452C480.794,519.002 480.594,518.801 481.497,518.451C482.192,518.181 483.286,518.934 479.678,527.585C477.431,532.973 466.305,537.582 465.651,537.243C463.68,536.22 465.254,535.605 468.121,527.365Z" style="fill:rgb(98,75,77);"/>
        <path d="M488.166,499.606C484.593,512.846 485.341,514.791 472.484,519.403C469.377,520.517 473.199,508.821 474.755,507.91C477.098,506.538 477.177,506.982 479.498,505.497C484.033,502.595 482.958,500.915 488.166,499.606Z" style="fill:rgb(130,104,100);"/>
        <path d="M588.24,443.694C589.063,444.964 591.785,449.166 591.211,462.382C591.203,462.548 590.822,464.345 589.199,461.855C587.445,459.166 581.453,452.034 581.533,450.496C582.041,440.778 582.368,434.743 584.248,437.704C586.182,440.751 586.196,440.626 588.24,443.694Z" style="fill:rgb(121,94,92);"/>
        <path d="M168.705,363.612C170.032,367.249 167.454,365.798 167.454,365.798C166.767,368.133 161.291,357.195 159.368,364.465C157.57,371.263 172.555,379.05 165.114,376.885C164.636,376.747 160.485,374.631 158.736,373.183C147.729,364.063 157.936,348.679 166.614,360.408L168.705,363.612Z" style="fill:rgb(152,68,66);"/>
        <path d="M608.695,478.444C606.673,467.315 606.61,467.458 606.481,466.494C606.067,463.391 613.778,471.953 614.399,472.59C616.825,475.082 620.771,493.179 616.522,489.468C611.066,484.702 608.959,485.648 608.695,478.444Z" style="fill:rgb(116,92,90);"/>
        <path d="M123.324,847.432C123.846,846.414 131.663,831.17 135.277,839.587C139.723,849.941 129.398,850.004 125.748,852.826C124.861,853.512 124.185,854.445 123.292,855.122C120.856,856.969 123.17,848.028 123.324,847.432Z" style="fill:rgb(169,150,141);"/>
        <path d="M569.983,421.586C569.388,425.531 568.621,433.05 566.728,429.358C561.223,418.623 560.134,418.135 563.902,406.672C564.833,403.839 567.987,409.303 568.196,409.665C572.189,416.583 570.603,418.471 569.983,421.586Z" style="fill:rgb(104,83,84);"/>
        <path d="M477.026,535.537C472.464,544.411 474.833,546.968 465.538,550.598C458.82,553.222 458.462,553.184 458.341,552.599C458.184,551.833 461.98,541.437 464.54,540.602C466.786,539.869 466.763,540.07 470.419,538.319C474.525,536.352 474.188,535.188 477.026,535.537Z" style="fill:rgb(96,75,76);"/>
        <path d="M150.828,847.716C151.364,847.047 159.533,836.858 161.077,844.606C163.124,854.879 155.455,853.313 150.533,857.541C141.9,864.958 150.466,848.414 150.828,847.716Z" style="fill:rgb(162,141,133);"/>
        <path d="M456.987,400.472C457.193,400.544 459.57,401.376 459.57,401.376C464.083,409.488 465.189,409.539 466.023,409.577C466.598,418.573 466.68,418.461 467.348,427.474C467.611,431.019 464.081,425.496 463.904,425.219C457.864,415.77 459.861,415.106 456.987,400.472Z" style="fill:rgb(157,74,75);"/>
        <path d="M564.509,358.486C560.451,355.169 560.634,351.434 561.507,351.546C582.638,354.248 584.145,361.534 588.593,371.469C587.326,372.06 586.981,372.993 586.402,371.657C585.589,369.782 579.699,356.205 564.509,358.486Z" style="fill:rgb(98,84,91);"/>
        <path d="M663.437,504.552C664.29,505.569 673.399,515.4 670.426,516.007C670.396,516.013 660.751,513.716 659.793,513.037C658.917,512.417 651.336,499.49 652.553,498.792C652.672,498.724 657.311,500.116 659.273,500.973C660.735,501.611 660.555,501.79 663.437,504.552Z" style="fill:rgb(123,97,94);"/>
        <path d="M225.524,663.109C235.251,664.248 233.993,666.912 243.216,673.814C244.294,674.62 244.961,676.026 242.642,675.965C241.018,675.923 233.551,677.6 230.056,672.86C226.453,667.973 225.527,668.983 221.717,664.365C219.834,662.083 222.6,663.438 225.524,663.109Z" style="fill:rgb(133,62,68);"/>
        <path d="M579.925,433.488C579.004,446.274 578.292,447.168 577.574,446.402C571.167,439.575 571.852,430.03 571.96,428.536C572.005,427.906 572.644,419.016 574.145,420.953C579.311,427.614 579.81,432.39 579.925,433.488Z" style="fill:rgb(128,103,99);"/>
        <path d="M162.485,522.584C173.633,532.305 173.025,532.917 178.875,546.486C180.846,551.056 170.223,544.004 166.902,536.317C164.312,530.32 164.432,530.384 161.856,524.442C161.285,523.125 162.48,522.6 162.485,522.584Z" style="fill:rgb(109,48,65);"/>
        <path d="M387.155,876.51C387.871,865.527 391.787,864.304 393.118,866.721C398.455,876.408 391.861,888.671 391.269,889.068C389.72,890.106 387.351,877.549 387.155,876.51Z" style="fill:rgb(169,149,141);"/>
        <path d="M264.605,363.653C264.124,362.668 263.539,363.416 263.087,362.489C263.05,362.413 263.016,362.344 263.579,361.548C265.489,358.843 266.964,358.126 268.329,357.189C270.9,355.424 274.925,356.374 276.078,358.712C283.031,372.806 254.357,381.975 266.096,374.114C274.596,368.422 272.93,358.231 264.605,363.653Z" style="fill:rgb(146,62,63);"/>
        <path d="M315.833,862.405C316.475,867.083 317.252,867.715 313.551,870.569C309.463,873.722 305.399,885.443 305.428,875.501C305.445,869.735 310.633,849.717 315.833,862.405Z" style="fill:rgb(161,140,132);"/>
        <path d="M667.589,503.781C671.388,504.627 680.373,504.634 685.226,512.639C687.35,516.143 681.228,522.934 675.18,513.713C670.21,506.138 667.717,507.178 667.589,503.781Z" style="fill:rgb(121,96,94);"/>
        <path d="M109.761,839.678C117.409,829.268 119.69,834.576 119.823,835.439C121.612,847.067 114.846,843.339 109.505,847.508C102.764,852.772 109.466,840.231 109.761,839.678Z" style="fill:rgb(167,146,138);"/>
        <path d="M214.502,736.535C221.507,738.608 224.074,737.907 227.116,739.944C231.835,746.96 233.836,745.673 234.293,749.19C226.139,749.111 225.144,750.256 220.076,743.839C215.912,738.564 213.145,739.488 214.502,736.535Z" style="fill:rgb(117,51,61);"/>
        <path d="M622.03,489.64C621.268,485.733 618.516,476.429 621.624,479.211C626.15,483.263 627.386,483.618 629.403,485.605C632.547,488.702 631.612,489.242 634.65,497.473C633.463,497.534 632.142,497.602 622.03,489.64Z" style="fill:rgb(125,100,96);"/>
        <path d="M249.296,664.965C250.832,668.169 251.386,667.606 257.526,672.505C256.091,674.353 251.44,676.962 247.464,673.542C241.512,668.421 234.157,663.728 237.548,663.833C247.279,664.134 248.423,664.605 249.296,664.965Z" style="fill:rgb(132,60,69);"/>
        <path d="M153.458,528.528C153.124,527.921 151.45,525.703 150.858,522.416C147.222,502.254 162.974,530.32 162.794,533.569C162.747,534.416 160.583,537.733 153.458,528.528Z" style="fill:rgb(107,48,64);"/>
        <path d="M129.921,448.474C126.97,462.264 132.659,462.979 129.321,468.679C128.44,466.637 124.528,457.581 123.508,441.5C122.497,425.567 129.687,447.753 129.921,448.474Z" style="fill:rgb(101,86,93);"/>
        <path d="M486.377,444.356C487.813,443.143 489.172,441.841 490.608,440.628C500.096,432.615 496.991,447.461 496.091,449.326C495.321,450.919 479.558,451.505 486.377,444.356Z" style="fill:rgb(117,95,94);"/>
        <path d="M460.388,564.153C459.086,564.531 451.993,566.994 451.601,565.5C451.563,565.356 455.168,558.014 456.753,556.863C457.215,556.527 457.261,556.794 463.462,554.407C467.116,553 467.759,551.4 468.665,553.506C468.678,553.537 465.112,560.295 464.31,561.358C462.627,563.588 461.387,563.706 460.388,564.153Z" style="fill:rgb(94,73,75);"/>
        <path d="M378.45,375.528C381.739,382.757 382.451,384.1 376.16,389.056C375.764,389.368 369.554,394.261 370.365,391.503C371.194,388.684 374.102,385.32 374.855,372.605C375.052,369.273 378.273,375.203 378.45,375.528Z" style="fill:rgb(47,43,52);"/>
        <path d="M346.182,676.59C346.128,675.969 345.66,670.492 347.806,668.962C348.909,668.175 360.159,670.287 360.378,670.607C361.012,671.534 360.368,671.65 349.41,679.368C347.059,681.024 347.272,679.16 346.182,676.59Z" style="fill:rgb(143,60,67);"/>
        <path d="M717.113,844.397C717.302,843.927 720.49,835.997 722.196,840.606C725.25,848.857 720.14,854.575 718.613,857.634C718.138,858.588 714.969,857.978 717.113,844.397Z" style="fill:rgb(152,130,123);"/>
        <path d="M460.308,568.463C454.967,575.881 455.703,578.172 446.525,578.327C445.468,578.345 439.891,572.516 455.537,568.663C456.861,568.337 458.12,567.641 459.483,567.584C459.884,567.567 459.907,568.48 460.308,568.463Z" style="fill:rgb(98,76,79);"/>
        <path d="M313.2,265.074C314.61,265.433 314.593,265.317 314.61,265.433C314.958,267.81 318.359,276.002 310.315,283.181C308.27,285.005 309.479,277.033 309.179,274.539C308.529,269.13 309.854,269.391 313.2,265.074Z" style="fill:rgb(131,64,65);"/>
        <path d="M393.527,510.202C393.531,510.217 397.973,518.972 391.55,521.623C384.254,524.634 384.03,521.047 383.311,513.265C386.459,512.085 386.456,513.351 387.457,516.512C387.582,516.909 391.393,519.891 390.725,512.461C390.593,511.002 393.249,510.278 393.527,510.202Z" style="fill:rgb(18,15,27);"/>
        <path d="M611.374,385.559C615.765,385.78 629.649,391.541 620.493,393.478C618.172,393.969 614.561,393.079 610.812,396.029C609.405,392.968 610.553,390.776 611.374,385.559Z" style="fill:rgb(64,51,61);"/>
        <path d="M227.355,674.475L226.467,675.295C223.422,675.031 223.567,675.013 220.473,674.776C213.235,674.221 214.359,671.565 215.182,664.392C215.326,663.136 217.512,662.022 227.355,674.475Z" style="fill:rgb(127,59,67);"/>
        <path d="M379.516,465.693C380.006,466.703 380.364,466.465 380.413,467.542C380.421,467.719 382.772,473.787 379.223,476.155C370.617,481.899 369.86,470.934 369.367,468.297C372.209,467.817 372.935,467.671 373.466,470.506C373.513,470.757 373.926,472.963 375.503,472.969C380.015,472.984 374.747,467.543 379.516,465.693Z" style="fill:rgb(20,17,30);"/>
        <path d="M481.737,467.47C483.234,456.44 483.553,456.461 483.222,455.559C481.619,451.184 493.227,453.401 491.47,456.487C486.292,465.581 483.494,467.552 482.529,468.232L481.737,467.47Z" style="fill:rgb(111,86,87);"/>
        <path d="M356.367,678.303C363.934,673.968 363.861,673.95 364.539,673.621C365.117,673.341 366.415,673.443 366.109,681.488C365.96,685.39 358.686,682.867 354.642,682.089C352.061,681.593 356.103,678.505 356.367,678.303Z" style="fill:rgb(141,58,65);"/>
        <path d="M210.24,736.768C214.963,743.845 221.866,749.26 217.5,748.52C206.124,746.591 206.243,745.44 206.341,744.496C207.174,736.478 208.155,735.548 210.24,736.768Z" style="fill:rgb(117,52,62);"/>
        <path d="M121.479,283.283C112.398,279.62 115.916,261.927 118.065,264.905C123.771,272.814 121.232,273.591 121.479,283.283Z" style="fill:rgb(128,64,65);"/>
        <path d="M441.332,485.162C441.887,485.942 446.926,493.017 441.167,497.116C436.028,500.773 434.095,496.381 432.29,492.352C433.873,490.801 433.708,490.824 435.504,489.512C437.662,491.058 438.128,496.077 439.665,492.602C439.857,492.169 440.019,491.802 439.799,486.678C440.31,486.173 440.821,485.668 441.332,485.162Z" style="fill:rgb(22,20,32);"/>
        <path d="M350.765,754.62C351.593,753.991 360.325,747.351 361.502,747.302C362.244,747.271 363.552,747.484 361.825,756.58C361.284,759.435 350.985,757.831 350.765,754.62Z" style="fill:rgb(142,60,68);"/>
        <path d="M698.76,842.596C706.123,829.4 705.442,846.441 704.14,848.252C693.973,862.392 698.613,843.203 698.76,842.596Z" style="fill:rgb(154,133,125);"/>
        <path d="M482.083,434.533C482.444,431.629 482.179,431.268 484.775,429.999C494.506,425.239 489.382,441.65 484.506,441.711C482.083,441.741 483.217,440.41 482.083,434.533Z" style="fill:rgb(126,103,100);"/>
        <path d="M430.53,435.563C436.995,451.176 425.447,452.083 423.174,446.621C423.066,446.362 423.1,446.383 422.025,443.314C423.152,441.787 423.043,441.796 424.534,440.747C427.245,442.627 425.261,443.959 426.865,445.031C429.771,446.971 429.056,441.137 428.591,437.543C429.237,436.883 429.884,436.223 430.53,435.563Z" style="fill:rgb(15,12,25);"/>
        <path d="M738.941,848.573C745.827,827.48 745.6,855.533 740.49,858.479C739.795,858.88 739.009,858.37 738.941,848.573Z" style="fill:rgb(153,130,122);"/>
        <path d="M134.214,336.393C134.482,336.706 136.727,339.321 137.702,340.186C146.059,347.596 162.066,342.8 151.65,346.786C138.383,351.864 133.203,339.268 134.214,336.393Z" style="fill:rgb(156,62,65);"/>
        <path d="M125.725,823.698C128.35,821.237 128.035,820.764 131.535,819.85C132.68,819.551 134.205,820.26 132.893,821.671C128.22,826.698 125.693,836.91 124.375,833.609C122.171,828.087 122.905,827.791 125.725,823.698Z" style="fill:rgb(53,47,56);"/>
        <path d="M295.836,340.585C292.018,347.957 287.839,349.707 279.257,346.931C269.618,343.814 287.119,347.268 293.36,340.276C298.409,334.617 297.551,337.274 295.836,340.585Z" style="fill:rgb(154,65,67);"/>
        <path d="M127.729,275.237C130.118,277.732 129.685,278.031 129.491,287.499C129.354,294.239 122.52,282.225 124.361,274.419C124.425,274.15 124.735,272.834 127.729,275.237Z" style="fill:rgb(137,72,70);"/>
        <path d="M303.317,275.268C312.286,268.067 302.305,296.066 301.625,287.459C300.894,278.195 301.441,277.191 303.317,275.268Z" style="fill:rgb(135,68,68);"/>
        <path d="M112.491,272.248C104.796,264.444 112.09,255.932 113.308,256.757C116.519,258.934 113.296,266.754 112.491,272.248Z" style="fill:rgb(126,63,64);"/>
        <path d="M315.577,261.522C315.946,260.664 317.678,254.04 320.198,258.676C320.643,259.495 323.216,264.23 320.202,270.322C317.993,274.787 318.378,268.258 315.577,261.522Z" style="fill:rgb(132,63,66);"/>
        <path d="M763.9,851.451C763.881,841.697 766.641,842.63 767.281,842.982C771.703,845.414 766.512,866.932 763.9,851.451Z" style="fill:rgb(152,128,119);"/>
        <path d="M184.331,228.966C182.267,227.803 181.892,227.905 181.727,225.476C181.618,223.884 182.721,221.989 183.508,221.511C189.767,217.707 194.179,230.014 184.331,228.966Z" style="fill:rgb(128,62,56);"/>
        <path d="M241.26,226.634C241.149,226.071 239.973,220.069 245.476,220.827C252.898,221.849 246.845,234.291 241.26,226.634Z" style="fill:rgb(97,53,50);"/>
        <path d="M622.03,489.64C632.142,497.602 633.463,497.534 634.65,497.473C635.354,500.736 636.801,502.024 634.475,501.816C634.472,501.816 624.186,495.716 622.787,494.236C622.774,494.223 622.106,494.533 622.03,489.64Z" style="fill:rgb(94,72,74);"/>
        <path d="M685.734,508.309C683.394,505.803 683.272,505.891 683.207,505.602C682.33,501.69 693.343,501.837 690.705,512.615C690.041,515.328 688.911,513.038 685.734,508.309Z" style="fill:rgb(124,99,95);"/>
        <path d="M216.428,824.54C215.616,822.129 214.115,821.497 216.381,820.316C224.355,816.159 220.338,829.272 220.288,829.32C219.931,829.659 219.026,830.178 216.428,824.54Z" style="fill:rgb(167,144,136);"/>
        <path d="M557.891,413.116C554.929,406.813 553.354,403.859 555.531,403.868C556.43,403.871 561.461,403.258 560.807,406.552C559.98,410.716 562.089,412.626 557.891,413.116Z" style="fill:rgb(102,81,83);"/>
        <path d="M250.525,663.738C256.22,663.814 261.739,661.622 259.315,670.379C259.082,670.261 259.051,671.102 258.818,670.984C258.226,670.685 257.966,669.966 257.521,669.474C257.036,668.937 257.022,668.968 250.525,663.738Z" style="fill:rgb(103,48,63);"/>
        <path d="M500.88,440.579C505.432,440.514 504.677,442.115 505.805,443.552C502.026,450.265 500.266,448.078 500.289,447.534C500.313,446.976 500.333,447.019 500.88,440.579Z" style="fill:rgb(95,78,83);"/>
        <path d="M230.55,738.988C229.761,740.44 230.729,740.424 236.594,746.742C235.827,747.558 235.06,748.374 234.293,749.19C233.836,745.673 231.835,746.96 227.116,739.944C228.766,739.175 228.6,738.875 230.55,738.988Z" style="fill:rgb(22,15,27);"/>
        <path d="M230.55,738.988C237.941,740.559 238.741,742.089 236.594,746.742C230.729,740.424 229.761,740.44 230.55,738.988Z" style="fill:rgb(113,48,58);"/>
        <path d="M250.525,663.738C257.022,668.968 257.036,668.937 257.521,669.474C257.966,669.966 258.226,670.685 258.818,670.984C259.051,671.102 259.082,670.261 259.315,670.379C258.718,671.088 258.122,671.796 257.526,672.505C251.386,667.606 250.832,668.169 249.296,664.965L250.525,663.738Z" style="fill:rgb(41,22,37);"/>
        <path d="M320.199,253.758C316.939,249.246 321.907,247.564 322.252,248.652C322.385,249.071 327.186,264.19 320.199,253.758Z" style="fill:rgb(134,65,68);"/>
        <path d="M348.755,752.222C348.666,751.661 347.746,745.896 352.528,746.199C359.563,746.646 349.261,751.961 348.755,752.222Z" style="fill:rgb(140,57,66);"/>
        <path d="M111.805,250.4C112.36,255.757 107.233,257.575 107.46,255.507C107.812,252.309 109.148,248.902 109.557,248.574C111.059,247.372 110.794,248.778 111.805,250.4Z" style="fill:rgb(136,68,69);"/>
        <path d="M201.466,407.606L201.946,408.179C201.744,409.287 201.541,410.394 201.338,411.502C201.088,411.952 198.616,416.394 197.599,416.735C194.449,417.794 196.389,415.359 198.689,411.704C199.711,409.284 199.421,409.138 201.466,407.606Z" style="fill:rgb(72,64,65);"/>
        <path d="M229.696,412.479C229.588,412.189 225.086,400.073 230.297,408.662C232.26,411.897 231.787,412.09 234.335,414.762C235.271,416.295 236.284,417.115 234.48,417.255C232.822,417.384 229.987,412.935 229.696,412.479Z" style="fill:rgb(72,63,62);"/>
        <path d="M428.591,437.543C429.056,441.137 429.771,446.971 426.865,445.031C425.261,443.959 427.245,442.627 424.534,440.747C425.886,439.679 427.239,438.611 428.591,437.543Z" style="fill:rgb(135,58,64);"/>
        <path d="M435.24,472.604C436.144,478.232 431.48,478.027 431.233,475.561C430.833,471.569 432.259,470.035 435.24,472.604Z" style="fill:rgb(138,55,60);"/>
        <path d="M421.78,426.749C417.448,430.818 417.371,420.595 421.594,422.361C424.079,423.401 421.979,426.46 421.78,426.749Z" style="fill:rgb(140,60,64);"/>
        <path d="M385.408,501.249C385.062,501.279 380.312,501.678 382.873,497.722C383.804,496.283 391.042,495.711 385.408,501.249Z" style="fill:rgb(131,55,56);"/>
        <path d="M439.799,486.678C440.019,491.802 439.857,492.169 439.665,492.602C438.128,496.077 437.662,491.058 435.504,489.512C436.017,489.109 435.982,489.16 439.799,486.678Z" style="fill:rgb(118,52,57);"/>
        <path d="M368.9,453.481C370.995,447.127 374.507,452.989 373.433,454.445C370.694,458.156 369.033,453.827 368.9,453.481Z" style="fill:rgb(137,60,66);"/>
        <path d="M197.842,306.358C196.722,303.16 194.639,301.602 197.432,301.816C199.799,301.997 203.536,315.972 197.842,306.358Z" style="fill:rgb(118,108,111);"/>
        <path d="M441.721,815.585C441.759,815.501 442.11,813.946 443.262,812.146C447.461,805.582 443.763,817.168 443.63,817.584C443.563,817.794 440.375,820.425 441.721,815.585Z" style="fill:rgb(92,75,77);"/>
        <path d="M201.662,305.083C200.179,301.7 200.294,300.839 200.345,300.458C200.885,296.434 201.682,300.966 203.924,304.318C207.247,309.287 201.814,305.198 201.662,305.083Z" style="fill:rgb(118,108,108);"/>
        <path d="M232.424,307.454C227.325,314.068 231.246,302.189 233.595,302.159C235.157,302.138 234.082,303.019 232.424,307.454Z" style="fill:rgb(123,111,114);"/>
        <path d="M227.981,302.642C228.092,302.374 230.831,295.755 230.869,300.453C230.877,301.452 229.274,305.098 228.578,305.773C224.769,309.468 227.873,302.873 227.981,302.642Z" style="fill:rgb(126,112,117);"/>
        <path d="M245.499,202.501C246.246,202.951 246.993,203.401 247.74,203.851C244.249,210.545 245.437,202.701 245.499,202.501Z" style="fill:rgb(96,90,86);"/>
        <path d="M712.908,854.085C713.434,855.694 715.34,855.927 713.771,856.5C713.578,856.57 706.157,856.55 712.908,854.085Z" style="fill:rgb(19,19,31);"/>
        <path d="M708.606,847.464C708.575,847.713 708.079,851.7 706.965,850.137C706.186,849.042 706.976,849.123 708.606,847.464Z" style="fill:rgb(30,26,41);"/>
        <path d="M204.761,171.445C205.313,171.432 205.864,171.42 206.416,171.408C205.502,171.95 205.435,172.194 204.761,171.445Z" style="fill:rgb(68,60,71);"/>
        <path d="M489.993,359.909L490.4,359.478L490.527,360.505L489.993,359.909Z" style="fill:rgb(46,40,50);"/>
    </g>
</svg>
