<?xml version="1.0" encoding="UTF-8" standalone="no"?>
<!DOCTYPE svg PUBLIC "-//W3C//DTD SVG 1.1//EN" "http://www.w3.org/Graphics/SVG/1.1/DTD/svg11.dtd">
<svg width="100%" height="100%" viewBox="0 0 1800 1800" version="1.1" xmlns="http://www.w3.org/2000/svg" xmlns:xlink="http://www.w3.org/1999/xlink" xml:space="preserve" xmlns:serif="http://www.serif.com/" style="fill-rule:evenodd;clip-rule:evenodd;stroke-linejoin:round;stroke-miterlimit:2;">
    <g id="Gemini_Generated_Image_4f6b6e4f6b6e4f6b.png" transform="matrix(2.755859,0,0,2.755859,-521.043708,-351.197002)">
        <path d="M316.775,493.731C334.092,458.537 338.659,460.278 337.863,456.421C337.808,456.155 336.87,454.073 336.671,451.496C336.443,448.552 338.607,447.135 335.151,442.776C324.219,428.99 324.185,426.993 321.633,428.711C316.807,431.961 306.93,442.733 300.835,431.339C297.769,425.606 303.032,421.337 303.711,420.786C310.988,414.883 314.094,414.802 311.11,410.782C309.07,408.033 295.658,389.962 285.365,376.6C282.816,373.291 255.976,338.447 254.469,334.513C249.818,322.377 268.848,311.437 274.487,311.911C281.788,312.525 282.572,315.974 297.61,335.416C303.62,343.185 338.877,390.691 339.043,390.901C340.94,393.301 342.21,391.362 346.81,387.931C349.984,385.564 348.42,384.687 349.087,356.483C349.585,335.484 354.473,316.73 353.089,314.77C349.127,309.162 349.23,307.969 362.419,278.463C364.477,273.858 364.829,273.311 361.582,269.434C356.093,262.879 346.867,252.294 349.166,234.444C351.28,218.038 373.962,194.32 408.841,221.032C412.983,224.204 413.38,221.835 418.719,218.935C432.743,211.316 460.597,196.452 510.501,195.556C523.627,195.321 532.199,197.789 532.51,195.502C533.142,190.85 517.325,123.397 569.333,170.682C582.556,182.705 582.499,184.908 585.218,183.096C588.296,181.045 583.479,131.087 604.593,142.326C614.909,147.817 630.437,176.395 632.211,179.659C635.764,186.198 641.687,181.037 662.431,197.587C689.942,219.536 693.011,251.377 697.72,257.341C707.291,269.464 727.629,268.224 732.595,283.466C743.742,317.681 718.596,363.401 684.805,385.957C676.76,391.328 675.777,390.529 675.54,392.506C675.371,393.907 673.847,419.444 673.99,422.503C674.152,425.959 690.515,441.678 687.041,454.364C686.279,457.145 685.896,457.431 688.36,460.608C696.421,471.003 705.987,490.938 707.306,493.688C707.474,494.148 708.987,498.296 709.779,499.295C710.927,500.742 715.591,499.981 716.263,499.953C722.858,501.069 723.041,501.65 725.267,506.693C727.239,512.066 726.993,512.11 728.95,517.48C729.093,518.72 729.307,520.565 732.033,532.775C733.662,542.156 733.958,546.233 734.044,547.411C735.667,555.929 734.775,555.989 736.353,564.554C735.988,570.316 736.459,570.254 736.608,579.514C736.882,586.72 736.677,592.939 737.005,595.266C735.495,601.794 736.366,601.87 735.149,610.534C735.097,610.939 735.133,618.599 730.508,620.514C728.493,621.349 726.389,620.379 725.722,623.529C725.556,624.311 724.843,627.681 724.348,633.432C723.22,635.962 723.131,635.838 722.003,638.385C720.958,640.408 721.229,640.53 716.501,647.501C715.179,648.774 704.676,658.898 693.638,649.349C690.658,646.771 686.18,639.869 685.889,637.292C685.754,636.097 684.977,636.256 683.096,622.523C681.729,612.54 681.256,612.03 680.634,611.359C680.437,611.146 678.803,609.274 678.644,609.093L678.453,607.547C678.293,607.312 678.445,606.946 678.286,606.711C676.833,604.579 676.831,608.375 676.831,608.563L677.149,609.332C677.488,613.704 677.162,613.783 679.137,617.715C679.558,618.554 684.006,631.626 680.879,640.644C679.836,643.65 679.664,643.543 678.519,646.509C677.881,648.163 678.27,648.295 682.237,652.824C684.34,656.582 684.904,656.119 691.21,663.672C692.484,664.999 709.696,684.432 710.111,684.971C714.675,691.847 722.631,696.323 718.622,702.683C716.002,704.552 716.165,704.967 708.641,706.963C682.789,710.017 675.358,697.113 672.725,694.348C671.93,693.548 666.414,687.994 663.213,683.936C661.967,682.355 661.614,684.972 661.354,685.328C651.46,698.868 652.179,699.41 640.42,711.442C640.213,712.226 639.099,712.391 640.648,714.354C641.55,715.496 643.129,717.361 643.348,717.62C660.688,738.098 652.433,749.109 651.257,753.179C648.912,755.444 649.04,755.498 646.325,757.34C627.997,770.904 606.488,746.591 600.202,740.824C598.742,739.485 598.285,738.58 588.565,742.806C583.412,744.279 562.479,751.942 529.48,754.414C525.991,755.15 498.187,754.938 494.538,754.361C458.826,751.214 440.683,744.197 433.554,742.018C433.011,741.754 427.826,739.233 426.483,739.373C423.158,739.717 399.193,772.467 377.596,757.411C374.933,755.553 375.083,755.476 372.704,753.248C372.091,750.574 368.807,744.612 370.412,737.483C374.359,719.959 385.853,716.149 383.777,711.306C380.232,708.059 378.166,705.811 377.704,705.308C369.802,696.707 363.33,685.593 362.827,684.283C362.377,683.351 360.953,680.404 357.484,672.507C355.116,666.38 354.961,666.498 352.996,660.224C352.017,656.018 352.087,653.476 348.569,650.445C338.21,641.183 343.651,620.119 344.975,617.81C347.237,613.865 346.901,613.727 346.92,609.183C346.932,609.134 348.361,605.925 346.5,605.906C345.181,605.892 345.771,606.552 345.497,608.497C344.42,610.371 344.27,610.208 342.869,611.8C341.588,613.256 340.856,630.882 337.818,638.685C333.632,649.44 327.276,651.704 324.495,652.482C313.229,655.633 307.805,647.415 306.745,646.2C302.759,639.9 302.822,639.715 301.81,638.381C297.356,626.547 298.678,621.796 296.604,621.219C291.893,619.909 289.956,620.256 288.903,609.492C288.03,602.52 287.347,592.224 287.254,585.457C287.391,581.477 287.328,581.519 287.475,577.505C287.967,564.952 288.788,555.572 289.986,547.494C290.403,543.587 291.788,533.99 291.957,532.817C293.561,525.623 293.576,525.695 295.042,518.477C295.665,516.723 297.76,509.339 298.506,507.504C300.845,501.539 301.083,500.788 307.433,500.155C313.008,500.134 313.735,500.611 315.181,497.363C315.565,496.498 315.486,496.545 315.862,495.722C315.935,495.562 315.93,495.574 316.775,493.731Z" style="fill:rgb(4,5,6);"/>
        <path d="M666.155,411.489C666.003,422.301 666.538,423.049 663.225,425.026C649.177,433.41 645.01,441.243 638.344,444.141C531.464,490.619 441.225,462.494 433.527,460.398C414.338,455.173 401.404,450.789 384.534,443.427C381.016,441.891 374.021,433.358 362.312,425.807C362.197,425.732 358.224,423.988 358.135,421.535C358.093,420.373 357.266,392.992 357.191,390.51C355.852,346.171 359.651,330.277 361.36,319.479C362.359,313.17 364.447,314.563 370.594,312.783C377.735,310.714 421.314,300.013 448.455,298.186C453.422,297.851 483.92,294.949 515.504,295.163C520.362,295.196 562.189,296.305 564.189,297.871C564.32,297.973 567.501,301.895 565.409,303.365C564.876,303.74 545.946,308.751 536.161,328.341C513.529,373.65 565.89,421.568 610.165,392.007C618.095,386.712 623.024,379.073 623.882,377.743C626.659,373.439 627.197,378.994 645.309,386.971C660.812,393.799 667.089,389.931 667.114,394.492C667.141,399.56 666.559,399.508 666.155,411.489Z" style="fill:rgb(81,164,205);"/>
        <path d="M592.503,188.449C593.443,188.603 619.525,190.983 644.212,208.884C649.813,212.946 668.614,228.421 674.66,240.385C676.335,243.699 677.237,241.668 677.215,241.448C677.191,241.215 673.432,227.899 671.102,222.65C669.099,218.14 666.927,213.443 662.616,208.429C660.552,206.028 660.019,206.238 659.75,203.058C666.436,208.098 676.824,221.116 684.079,238.669C690.825,254.99 685.572,264.473 719.582,277.407C724.456,279.261 718.441,278.848 713.47,280.409C691.04,287.452 717.06,292.862 719.61,294.347C720.888,295.091 722.255,305.527 719.238,307.04C703.652,314.856 703.96,318.45 694.279,328.29C677.763,344.645 674.758,338.96 664.364,334.853C649.058,328.805 646.186,352.275 666.531,353.124C698.571,354.461 700.446,321.076 725.592,314.009C726.559,314.314 728.132,314.712 724.646,324.55C714.197,354.037 695.364,370.658 680.384,381.327C677.849,383.133 664.165,394.712 629.813,371.061C627.912,369.752 615.476,360.14 607.343,350.559C607.632,350.358 607.36,349.748 607.649,349.547C609.408,348.327 632.707,346.12 642.142,329.277C645.88,322.605 649.501,313.118 644.357,318.29C639.681,322.991 624.432,333.914 604.464,335.003C603.762,335.041 603.113,335.076 595.678,335.142C594.09,334.235 592.162,333.135 582.143,316.715C581.79,316.137 579.869,312.988 577.926,309.361C578.414,308.954 578.049,307.819 581.514,308.309C604.637,311.578 620.575,320.693 643.3,305.203C647.289,302.485 652.82,297.409 653.668,296.564C654.449,295.787 654.102,294.603 652.498,295.241C620.143,308.116 601.109,296.606 585.514,291.461C584.1,290.995 572.809,287.27 567.711,286.064C564.69,284.707 564.506,284.045 558.728,266.423C536.768,199.45 535.545,181.438 537.932,164.566C539.218,155.482 549.473,162.84 560.094,170.983C564.625,174.457 578.1,187.866 579.622,189.38C583.42,193.159 584.157,187.785 592.503,188.449Z" style="fill:rgb(229,228,227);"/>
        <path d="M520.492,676.064C583.062,674.366 615.556,667.206 651.527,659.649C659.04,658.07 664.763,655.179 663.173,659.387C657.14,675.35 648.394,703.642 606.311,726.136C539.739,761.72 396.519,757.282 363.697,666.439C362.312,662.604 360.206,658.413 361.328,657.267C362.391,656.182 379.72,662.46 416.544,668.195C473.557,677.074 506.822,676.133 520.492,676.064Z" style="fill:rgb(36,44,61);"/>
        <path d="M438.428,512.928C443.142,513.692 443.182,513.199 497.48,521.605C507.477,523.152 509.788,521.28 509.797,525.492C509.816,534.14 510.036,632.674 509.8,633.591C509.258,635.706 508.264,635.115 482.52,634.011C428.412,631.691 376.658,619.207 367.626,617.028C355.159,614.021 354.21,614.068 354.199,611.515C354.16,602.403 354.741,602.174 354.88,582.499C354.93,575.492 359.843,578.887 370.357,568.356C387.902,550.783 388.055,526.211 391.373,530.619C393.654,533.648 396.949,544.621 401.53,545.207C404.131,545.54 406.501,543.546 432.579,529.648C444.026,523.548 431.258,515.759 432.952,512.748C433.032,512.605 433.041,511.967 438.428,512.928Z" style="fill:rgb(68,84,109);"/>
        <path d="M579.559,513.942C590.008,512.396 592.504,511.654 591.221,514.377C588.216,520.758 582.373,524.639 592.306,529.91C618.449,543.782 618.252,544.137 620.649,545.07C628.866,548.268 632.312,522.872 635.225,532.592C635.904,534.856 640.192,548.376 644.744,556.356C657.11,578.033 669.109,575.028 669.218,581.502C669.572,602.48 670.58,612.403 669.501,613.501C668.088,614.94 632.608,622.581 625.416,624.038C597.794,629.633 555.724,633.63 540.482,634.085C519.905,634.698 515.05,635.634 514.555,633.487C514.466,633.099 514.468,534.139 514.468,525.5C514.468,522.424 516.587,522.968 521.481,522.321C526.135,521.706 559.747,517.263 579.559,513.942Z" style="fill:rgb(68,84,110);"/>
        <path d="M660.586,620.919C666.203,619.595 666.888,619.208 668.569,618.909C676.367,617.526 676.631,639.535 669.459,646.46C668.203,647.674 667.004,648.832 648.582,652.854C641.452,654.41 598.357,663.819 558.467,667.009C468.709,674.185 395.012,657.951 360.562,649.145C344.368,645.006 349.525,620.611 353.637,618.97C358.608,616.987 488.713,664.429 660.586,620.919Z" style="fill:rgb(68,83,109);"/>
        <path d="M492.926,344.452C493.591,355.136 494.844,375.649 470.668,392.746C441.178,413.601 389.168,393.632 392.993,345.551C394.751,323.454 411.118,311.882 413.81,309.979C437.518,293.217 480.903,298.775 491.8,338.422C491.93,338.895 491.875,338.864 492.926,344.452Z" style="fill:rgb(5,8,10);"/>
        <path d="M440.521,395.053C392.432,390.09 388.14,335.025 417.152,315.021C459.486,285.831 509.552,337.751 477.069,379.145C464.586,395.053 443.71,395.053 440.521,395.053Z" style="fill:rgb(253,253,252);"/>
        <path d="M400.583,463.436C398.162,460.323 398.106,460.446 395.517,457.491C391.675,453.106 397.439,456.635 404.668,459.068C414.867,462.5 488.914,490.879 578.576,470.779C623.761,460.65 627.272,454.473 628.812,456.287C629.391,456.969 628.729,456.97 622.234,465.315C621.076,466.803 616.387,472.827 608.892,484.755C605.319,490.44 606.187,492.283 599.54,492.887C588.941,493.85 573.18,496.815 571.441,497.037C533.04,501.938 519.865,506.95 491.482,502.6C454.646,496.955 454.649,497.319 451.456,496.795C421.594,491.892 420.415,493.407 418.198,489.669C416.91,487.494 409.846,475.578 400.583,463.436Z" style="fill:rgb(36,42,60);"/>
        <path d="M464.54,238.812C467.044,238.489 466.986,238.517 469.458,238.178C496.361,234.485 534.121,235.446 541.417,236.86C544.692,237.495 544.533,246.76 556.434,279.522C557.684,282.961 552.118,281.364 549.52,281.225C503.998,278.796 483.542,280.897 477.478,281.113C454.386,281.934 445.097,288.574 442.768,270.464C438.92,240.545 449.451,240.386 464.54,238.812Z" style="fill:rgb(177,184,192);"/>
        <path d="M517.504,289.052C451.463,288.013 401.301,298.87 391.397,301.013C375.015,304.559 359.601,309.103 359.472,309.129C356.004,309.827 360.526,299.715 362.48,296.487C364.794,292.665 386.466,286.864 387.183,286.166C391.673,281.79 367.622,288.043 366.672,286.428C366.334,285.853 366.262,285.731 369.994,278.776C373.868,271.558 395.169,266.452 396.31,264.413C396.469,264.128 397.058,262.314 392.426,263.185C381.338,265.271 377.791,266.856 377.627,265.47C377.534,264.677 384.44,255.303 386.779,252.771C393.787,245.186 460.669,227.46 504.498,227.109C537.742,226.843 539.906,228.11 540.513,229.495C542.794,234.705 537.517,230.518 501.5,231.446C474.571,232.14 452.978,236.072 449.402,237.218C432.128,242.753 438.6,275.234 440.719,279.396C446.922,291.58 452.944,286.209 487.51,284.839C492.306,284.649 522.792,283.441 547.503,285.417C558.43,286.291 558.931,286.107 560.269,288.599C562.466,292.692 557.045,289.621 517.504,289.052Z" style="fill:rgb(43,55,78);"/>
        <path d="M578.471,394.966C533.884,391.678 522.142,333.863 558.751,312.928C569.756,306.635 570.498,309.563 571.134,310.703C594.539,352.683 616.303,367.898 619.196,370.803C621.911,373.53 610.979,385.848 600.575,390.66C588.497,396.245 579.291,394.976 578.471,394.966Z" style="fill:rgb(253,253,252);"/>
        <path d="M494.105,423.534C493.043,419.055 491.133,421.312 486.579,420.164C472.434,416.599 475.395,402.722 475.791,401.589C481.307,385.775 493.061,388.991 494.27,383.453C497.254,369.788 526.492,370.5 529.826,382.408C530.813,385.931 531.45,385.582 534.385,386.76C550.58,393.256 554.222,411.979 541.655,418.813C535.023,422.419 530.727,417.637 530.095,424.467C528.215,444.793 519.684,438.909 508.449,440.016C495.66,441.277 495.374,430.984 494.105,423.534Z" style="fill:rgb(5,7,7);"/>
        <path d="M405.416,482.554C415.927,498.181 415.338,499.074 414.187,500.145C414.187,500.145 393.428,511.564 392.545,511.754C389.317,512.448 387.063,498.083 361.905,470.11C353.832,461.134 353.688,461.373 344.966,453.061C340.931,449.216 352.164,429.939 355.547,430.223C356.707,430.321 366.588,437.203 372.446,442.561C390.7,459.256 402.526,478.226 405.416,482.554Z" style="fill:rgb(70,85,111);"/>
        <path d="M645.638,448.628C646.689,447.525 653.137,440.756 659.862,435.975C668.202,430.047 669.204,429.228 671.098,431.795C677.234,440.112 678.698,444.406 679.11,445.615C681.64,453.036 678.956,452.937 673.355,458.352C650.184,480.751 636.186,506.002 633.641,510.593C632.247,513.108 629.662,510.909 622.304,506.849C610.994,500.608 608.257,500.486 610.048,497.259C621.594,476.457 632.374,462.528 645.638,448.628Z" style="fill:rgb(70,85,110);"/>
        <path d="M324.109,518.437C316.356,566.865 313.601,603.084 313.039,610.48C312.773,613.964 311.659,614.047 301.501,614.523C294.923,614.831 296.223,612.02 295.422,605.505C290.689,566.975 302.486,509.681 306.558,507.598C309.21,506.242 325.072,508.068 324.934,512.502C324.919,512.981 324.907,513.362 324.109,518.437Z" style="fill:rgb(70,85,111);"/>
        <path d="M728.086,555.542C728.567,560.068 731.541,588.062 728.047,612.433C727.637,615.29 725.343,614.65 716.535,614.039C710.428,613.616 711.322,611.567 710.704,605.48C709.741,595.987 708.388,573.947 699.725,515.461C699.241,512.194 698.07,510.741 702.422,509.288C716.976,504.428 718.412,508.098 718.892,509.325C724.195,522.882 727.64,551.799 728.086,555.542Z" style="fill:rgb(69,85,110);"/>
        <path d="M606.54,251.946C607.591,251.843 611.528,251.454 619.553,249.735C647.738,243.696 657.242,252.149 678.739,277.34C678.882,277.508 681.54,280.623 678.506,280.093C664.919,277.722 664.443,277.809 647.558,282.709C612.931,292.757 589.41,258.355 585.929,253.241C585.784,253.028 583.186,249.212 586.524,250.08C596.279,252.617 598.662,252.29 606.54,251.946Z" style="fill:rgb(161,41,49);"/>
        <path d="M327.631,402.657C321.814,407.025 318.817,410.489 316.714,408.253C316.364,407.88 269.524,345.871 267.642,342.424C266.464,340.266 271.446,337.968 281.606,329.64C285.137,326.746 285.352,329.609 291.207,336.671C291.733,337.304 294.242,341.58 303.227,352.725C305.665,355.748 305.015,356.188 332.152,391.705C333.616,393.62 335.571,396.086 334.309,397.331C333.823,397.811 333.812,397.685 327.631,402.657Z" style="fill:rgb(39,48,67);"/>
        <path d="M408.594,237.131C408.77,236.682 407.799,236.273 407.975,235.824C408.208,235.231 424.211,225.605 425.641,224.746C446.033,212.48 485.503,201.516 523.527,204.089C530.76,204.578 534.172,204.046 534.849,207.415C537.395,220.09 538.999,221.766 536.543,221.773C523.141,221.809 495.625,216.089 430.58,230.826C416.994,233.904 411.772,236.225 408.594,237.131Z" style="fill:rgb(84,164,202);"/>
        <path d="M670.889,524.433C670.166,520.099 666.463,497.884 673.859,469.593C674.9,465.614 678.571,462.84 679.475,462.863C679.903,462.874 680.235,462.883 683.112,466.796C690.882,477.366 699.921,495.995 701.598,500.471C702.418,502.659 698.855,503.286 696.448,504.39C687.142,508.656 696.013,522.539 693.302,525.306C692.274,526.355 675.938,530.686 674.41,531.091C671.567,531.845 671.522,527.589 670.889,524.433Z" style="fill:rgb(213,182,145);"/>
        <path d="M355.038,503.499C354.964,505.657 354.407,521.97 352.07,530.32C351.64,531.853 350.744,531.845 332.634,526.055C328.29,524.666 331.675,520.756 332.054,510.511C332.346,502.605 320.667,505.206 322.929,499.671C328.596,485.804 342.664,461.59 345.282,462.922C345.725,463.148 348.117,464.365 349.47,467.514C351.191,471.524 354.64,490.365 354.923,499.475C354.933,499.797 354.931,499.773 355.038,503.499Z" style="fill:rgb(212,181,144);"/>
        <path d="M501.465,510.871C519.505,512.652 519.488,511.254 546.546,507.805C569.578,504.87 569.387,503.829 592.436,501.018C593.667,500.868 598.739,499.213 597.23,502.402C595.431,506.203 595.709,507.021 591.522,507.661C517.798,518.932 517.029,518.878 510.506,518.428C504.299,517.999 498.082,517.569 433.466,507.781C429.046,507.112 429.038,506.624 427.118,502.636C425.446,499.164 428.34,500.414 432.451,500.915C437.988,501.59 437.833,502.423 501.465,510.871Z" style="fill:rgb(70,84,111);"/>
        <path d="M543.11,405.509C541.08,425.143 518.634,408.043 509.436,410.235C506.465,410.943 483.814,421.691 481.278,407.536C479.442,397.293 493.635,389.967 496.404,391.682C498.19,392.788 501.412,397.459 512.499,397.478C516.981,397.485 522.775,395.788 526.154,393.089C526.765,392.601 528.179,389.027 535.809,394.014C542.072,398.107 542.745,402.06 543.11,405.509Z" style="fill:rgb(213,181,143);"/>
        <path d="M417.345,614.284C413.348,616.858 412.328,617.134 409.025,612.888C403.796,606.166 403.663,606.335 398.416,599.568C388.2,586.394 388.36,585.938 388.83,584.596C389.406,582.954 405.206,569.944 407.488,570.005C410.774,570.092 409.435,572.103 431.078,598.823C433.996,602.426 431.065,603.1 421.312,611.26C421.006,611.516 419.811,612.516 417.345,614.284Z" style="fill:rgb(5,6,7);"/>
        <path d="M623.352,275.924C620.595,274.842 617.071,273.34 611.247,268.838C605.558,264.442 600.127,260.6 600.18,259.436C600.253,257.838 603.011,260.196 618.461,256.349C642.647,250.328 651.909,255.94 667.326,271.652C668.989,273.346 667.895,274.136 665.487,274.057C649.943,273.543 646.652,283.793 623.352,275.924Z" style="fill:rgb(6,9,9);"/>
        <path d="M604.638,612.337C603.729,611.655 598.319,607.591 593.68,603.297C590.421,600.28 593.314,599.31 607.137,581.241C612.482,574.254 615.303,567.842 619.242,570.849C635.703,583.419 635.901,583.77 635.711,585.525C635.527,587.218 617.234,611.344 613.296,615.279C610.384,618.188 607.298,614.495 604.638,612.337Z" style="fill:rgb(4,6,7);"/>
        <path d="M567.711,286.064C572.809,287.27 584.1,290.995 585.514,291.461C601.109,296.606 620.143,308.116 652.498,295.241C654.102,294.603 654.449,295.787 653.668,296.564C652.82,297.409 647.289,302.485 643.3,305.203C620.575,320.693 604.637,311.578 581.514,308.309C578.049,307.819 578.414,308.954 577.926,309.361C577.636,308.609 572.447,299.941 567.865,290.312C566.638,287.733 566.592,287.747 566.583,287.5C566.546,286.481 567.749,287.099 567.711,286.064Z" style="fill:rgb(164,41,48);"/>
        <path d="M672.591,655.526C672.685,655.223 672.703,654.901 672.797,654.598C674.034,650.629 677.312,657.199 693.678,675.328C713.198,696.95 713.779,698.67 711.56,699.617C702.241,703.597 691.018,699.539 689.346,698.935C678.286,694.936 679.601,692.896 667.123,678.9C663.822,675.198 666.81,674.668 672.591,655.526Z" style="fill:rgb(66,67,72);"/>
        <path d="M592.503,188.449C592.915,188.132 593.088,187.567 593.5,187.25C593.835,186.992 603.087,184.705 612.51,184.961C640.206,185.712 659.029,202.507 659.75,203.058C660.019,206.238 660.552,206.028 662.616,208.429C666.927,213.443 669.099,218.14 671.102,222.65C673.432,227.899 677.191,241.215 677.215,241.448C677.237,241.668 676.335,243.699 674.66,240.385C668.614,228.421 649.813,212.946 644.212,208.884C619.525,190.983 593.443,188.603 592.503,188.449Z" style="fill:rgb(165,43,48);"/>
        <path d="M356.963,239.5C357.117,238.493 357.059,237.461 357.213,236.455C358.901,225.414 369.01,213.918 386.582,218.208C395.628,220.417 403.926,227.512 404.083,227.755C404.52,228.433 405.025,229.217 397.11,235.038C394.085,237.263 393.903,235.489 391.226,233.949C377.903,226.286 364.73,238.572 374.447,251.544C376.534,254.329 376.703,254.766 374.671,257.614C371.544,261.996 370.512,267.167 367.819,264.187C356.001,251.112 357.005,240.089 356.963,239.5Z" style="fill:rgb(85,168,205);"/>
        <path d="M698.077,553.526C701.977,584.768 702.18,584.757 702.086,587.491C702.008,589.753 687.079,591.984 685.624,590.417C685.38,590.154 681.241,572.714 679.056,565.65C677.34,560.103 675.981,553.1 676.18,552.378C676.556,551.011 696.508,544.068 697.1,546.649C697.1,546.649 697.999,552.976 698.077,553.526Z" style="fill:rgb(36,43,58);"/>
        <path d="M323.932,571.533C324.147,569.597 326.101,552.059 327.009,547.379C327.517,544.758 330.235,546.012 331.532,546.375C348.342,551.083 348.256,552.288 348.112,553.484C347.835,555.778 338.534,590.508 338.521,590.52C336.98,591.973 322.693,588.731 322.491,588.508C321.576,587.499 322.116,587.334 323.932,571.533Z" style="fill:rgb(36,44,60);"/>
        <path d="M662.949,492.536C660.44,524.539 666.786,530.458 665.661,535.536C663.873,543.604 664.687,543.701 667.631,551.448C667.78,551.842 669.744,557.009 667.465,556.717C667.401,556.709 662.25,552.637 657.513,541.494C651.179,526.594 651.665,521.143 644.763,508.353C643.424,505.871 645.602,504.05 648.116,500.263C651.584,495.04 651.559,495.108 663.308,479.174C663.925,478.338 665.596,478.019 664.844,480.484C663.6,484.566 663.029,491.563 662.949,492.536Z" style="fill:rgb(35,42,57);"/>
        <path d="M359.891,525.535C361.572,515.935 363.546,501.852 359.991,483.417C359.922,483.057 358.425,475.295 361.011,478.952C367.886,488.675 368.108,488.458 374.845,498.279C380.271,506.191 380.474,506.628 379.06,509.208C370.692,524.48 373.389,525.55 366.647,541.566C363.154,549.864 357.823,556.472 356.5,556.507C352.122,556.623 361.327,547.288 359.111,537.58C357.748,531.604 358.843,531.605 359.891,525.535Z" style="fill:rgb(35,42,57);"/>
        <path d="M638.867,746.402C639.201,748.02 642.933,755.844 630.584,753.137C621.75,751.201 606.32,736.9 606.403,735.488C606.493,733.974 614.475,731.809 630.209,720.111C634.193,717.149 634.464,719.612 637.697,723.337C638.943,724.773 648.822,736.156 645.766,745.686C644.236,750.459 644.221,744.699 641.886,740.299C636.32,729.814 633.767,732.598 633.339,733.367C632.367,735.116 633.196,736.188 634.83,738.234C637.52,741.6 637.946,743.724 638.867,746.402Z" style="fill:rgb(209,181,145);"/>
        <path d="M378.877,747.024C374.152,735.801 387.566,721.997 389.117,720.18C392.504,716.212 392.824,720.893 410.301,730.841C415.618,733.868 420.508,733.952 415.86,737.903C412.429,740.819 397.628,756.349 386.551,753.314C381.769,752.004 386.377,741.485 388.798,738.758C388.852,738.698 393.052,735.284 390.712,733.253C387.557,730.514 381.436,740.191 380.511,744.504C380.166,746.112 380.33,746.302 378.877,747.024Z" style="fill:rgb(209,181,144);"/>
        <path d="M334.08,619.45C333.199,624.977 331.315,647.562 318.547,645.275C309.339,643.625 305.046,623.002 306.496,621.496C308.685,619.224 317.889,624.31 319.624,612.515C320.019,609.83 319.882,608.802 322.535,609.318C333.696,611.489 335.064,610.967 334.803,613.519C334.755,613.995 334.75,613.959 334.08,619.45Z" style="fill:rgb(213,181,142);"/>
        <path d="M709.402,619.792C715.466,621.386 719.126,619.48 717.77,625.56C710.967,656.053 697.288,645.069 693.798,636.387C692.03,631.99 687.911,612.693 690.52,611.541C691.337,611.18 691.324,611.42 701.501,609.505C704.599,608.922 704.001,610.427 704.536,613.494C705.491,618.964 707.347,618.677 709.402,619.792Z" style="fill:rgb(212,182,144);"/>
        <path d="M627.459,517.57C632.353,520.392 629.556,521.766 626.987,526.756C622.703,535.076 621.819,537.915 619.396,536.74C609.004,531.704 599.08,525.766 597.357,524.735C593.351,522.339 595.607,521.205 598.065,516.294C602.142,508.148 602.867,504.595 605.392,505.742C606.83,506.395 626.396,516.933 627.459,517.57Z" style="fill:rgb(70,85,111);"/>
        <path d="M411.528,509.552C419.754,505.08 420.366,505.334 421.264,506.653C421.742,507.354 428.642,521.242 428.711,521.405C429.691,523.719 428.599,524.102 413.727,531.924C407.209,535.352 403.786,537.789 402.473,536.527C402.267,536.33 394.049,521.384 393.881,520.442C393.678,519.31 394.01,519.074 411.528,509.552Z" style="fill:rgb(69,84,110);"/>
        <path d="M579.071,351.477C576.592,371.726 549.836,366.594 551.221,349.476C552.522,333.397 577.998,329.979 579.071,351.477Z" style="fill:rgb(3,4,4);"/>
        <path d="M472.922,350.493C471.373,374.729 439.13,364.404 445.964,345.659C450.235,333.942 471.1,331.326 472.922,350.493Z" style="fill:rgb(4,5,4);"/>
        <path d="M595.678,335.142C603.113,335.076 603.762,335.041 604.464,335.003C624.432,333.914 639.681,322.991 644.357,318.29C649.501,313.118 645.88,322.605 642.142,329.277C632.707,346.12 609.408,348.327 607.649,349.547C607.36,349.748 607.632,350.358 607.343,350.559C602.657,345.775 595.716,337.037 595.559,336.5C595.431,336.064 595.806,335.578 595.678,335.142Z" style="fill:rgb(164,41,47);"/>
        <path d="M409.649,578.384C418.219,590.4 427.13,599.683 426.158,601.315C425.749,602.004 415.255,610.577 414.587,610.742C412.871,611.168 412.395,610.942 399.928,594.201C399.154,593.162 396.375,589.268 396.068,588.838C394.499,586.641 393.233,585.738 396.897,582.975C405.625,576.393 406.283,574.302 408.327,576.643C408.807,577.191 409.17,577.835 409.649,578.384Z" style="fill:rgb(68,83,110);"/>
        <path d="M614.635,578.606C616.456,576.141 616.574,576.062 616.804,575.907C618.421,574.82 629.633,585.089 629.712,585.428C630.273,587.85 612.123,610.013 611.484,610.479C610.505,611.191 609.84,611.493 598.892,602.086C596.327,599.882 601.977,596.091 614.635,578.606Z" style="fill:rgb(69,84,110);"/>
        <path d="M510.495,273.933C497.314,273.854 494.809,273.914 493.523,273.448C491.103,272.572 493.781,267.193 494.464,265.484C497.506,257.868 500.542,245.383 510.593,243.995C518.201,242.944 521.743,245.4 522.448,245.652C525.604,246.782 528.262,241.074 530.447,241.661C533.038,242.357 527.98,247.243 527.601,247.61C524.052,251.038 523.421,249.513 520.602,248.262C504.352,241.053 495.198,262.542 507.747,269.051C519.275,275.031 527.497,260.487 519.602,255.362C511.158,249.88 506.445,260.411 511.415,262.661C515.682,264.594 516.009,259.226 516.037,259.18C518.344,255.434 520.733,263.259 516.496,265.493C507.626,270.17 500.962,256.054 510.528,251.557C523.552,245.435 532.609,265.613 520.303,272.136C515.726,274.562 511.23,273.911 510.495,273.933Z" style="fill:rgb(10,12,15);"/>
        <path d="M549.642,169.187C550.707,169.646 555.071,171.526 561.55,177.444C575.311,190.014 576.062,191.864 576.728,193.501C576.105,193.716 575.386,193.494 574.763,193.708C574.331,193.857 574.299,193.868 570.596,197.612C565.815,202.447 561.837,210.488 560.512,210.446C559.212,210.405 559.678,209.765 558.79,207.38C555.207,197.767 550.985,187.209 549.642,169.187Z" style="fill:rgb(164,42,48);"/>
        <path d="M725.592,314.009C700.446,321.076 698.571,354.461 666.531,353.124C646.186,352.275 649.058,328.805 664.364,334.853C674.758,338.96 677.763,344.645 694.279,328.29C694.478,328.932 694.966,330.059 690.425,335.431C678.461,349.586 664.915,338 660.41,339.207C656.207,340.333 655.855,348.31 672.517,348.061C678.253,347.975 685.584,348.097 698.218,333.264C699.279,332.018 709.239,320.432 712.378,318.5C713.164,318.016 724.536,312.476 725.592,314.009Z" style="fill:rgb(156,45,50);"/>
        <path d="M372.933,544.693C379.992,529.387 381.944,512.801 385.218,514.872C385.622,515.128 385.701,518.192 385.708,518.483C385.794,521.817 387.951,521.962 386.84,525.609C375.189,563.865 364.204,568.451 357.597,572.667C353.561,575.243 354.665,567.281 356.617,565.644C365.05,558.569 365.897,559.036 372.933,544.693Z" style="fill:rgb(68,82,108);"/>
        <path d="M656.389,554.572C664.454,565.931 668.398,563.3 668.872,568.444C669.192,571.918 669.153,572.942 668.398,573.219C667.134,573.683 655.752,566.406 649.755,556.334C643.719,546.198 643.172,541.369 637.537,525.487C636.223,521.787 638.956,521.447 638.623,517.498C638.601,517.245 638.251,513.104 640.245,514.769C643.025,517.091 644.222,534.311 656.389,554.572Z" style="fill:rgb(69,83,109);"/>
        <path d="M601.714,178.694C598.956,180.525 598.741,179.76 595.447,180.161C593.69,180.375 593.052,181.176 592.624,179.464C592.562,179.216 593.315,167.531 593.424,166.493C594.752,153.851 596.273,147.459 599.499,147.387C604.137,147.283 613.054,159.747 616.17,164.705C616.856,165.797 624.234,177.534 624.529,178.49C625.416,181.367 621.037,179.238 620.762,179.104C615.723,167.008 608.401,158.508 607.04,156.927C602.356,151.49 602.643,159.73 601.714,178.694Z" style="fill:rgb(231,229,229);"/>
        <path d="M549.642,169.187C550.985,187.209 555.207,197.767 558.79,207.38C559.678,209.765 559.212,210.405 560.512,210.446C561.837,210.488 565.815,202.447 570.596,197.612C574.299,193.868 574.331,193.857 574.763,193.708C575.386,193.494 576.105,193.716 576.728,193.501C576.056,194.997 576.088,195.004 576.002,195.117C570.219,202.627 569.447,202.234 562.153,219.352C560.348,223.588 558.964,220.703 558.036,218.712C557.071,216.642 545.33,191.992 546.763,171.528C547.016,167.928 549.244,169.222 549.642,169.187Z" style="fill:rgb(11,6,6);"/>
        <path d="M639.442,221.941C639.712,222.003 649.927,222.776 655.164,232.663C662.084,245.728 642.943,240.849 627.581,224.431C623.484,220.054 636.271,221.727 639.442,221.941Z" style="fill:rgb(164,43,50);"/>
        <path d="M601.714,178.694C602.643,159.73 602.356,151.49 607.04,156.927C608.401,158.508 615.723,167.008 620.762,179.104C607.398,179.56 603.221,178.924 601.714,178.694Z" style="fill:rgb(159,43,47);"/>
        <path d="M322.274,414.216C334.859,404.844 347.152,394.307 348.518,394.445C349.43,394.538 349.214,398.145 349.195,398.471C349.135,399.466 349.088,400.262 340.117,407.005C309.698,429.872 309.444,430.516 307.397,429.692C302.546,427.739 312.499,422.086 322.274,414.216Z" style="fill:rgb(149,159,166);"/>
        <path d="M273.534,317.967C274.282,318.093 278.89,318.869 281.097,323.7C281.386,324.333 281.746,325.121 275.145,330.042C265.498,337.232 264.728,338.616 262.787,336.29C257.461,329.908 260.469,327.122 261.788,325.795C268.319,319.222 272.436,318.231 273.534,317.967Z" style="fill:rgb(81,88,95);"/>
        <path d="M332.374,531.926C351.071,537.283 352.659,538.164 352.892,539.383C352.916,539.507 353.712,547.785 349.463,546.648C339.66,544.025 331.129,540.936 329.559,540.368C329.553,540.366 327.345,540.79 328.98,532.667C329.387,530.642 330.238,531.772 332.374,531.926Z" style="fill:rgb(69,83,111);"/>
        <path d="M671.05,540.5C671.925,537.299 672.804,537.758 677.416,536.255C692.931,531.202 693.099,531.133 694.351,531.762C694.99,532.084 695.686,536.063 695.753,536.448C696.448,540.424 694.989,540.277 689.368,542.04C688.183,542.411 676.485,546.081 674.539,546.647C670.9,547.705 671.107,541.128 671.05,540.5Z" style="fill:rgb(72,85,112);"/>
        <path d="M349.95,414.48C349.284,418.438 348.384,418.021 338.34,426.295C334.646,429.338 333.718,431.129 330.6,427.421C328.511,424.937 327.687,424.219 330.235,422.176C345.605,409.854 346.026,409.723 347.538,410.439C349.128,411.193 349.859,414.115 349.95,414.48Z" style="fill:rgb(198,207,208);"/>
        <path d="M697.438,604.111C684.866,606.245 684.544,606.16 684,605.229C683.979,605.193 681.473,598.108 684.426,597.295C685.058,597.122 685.057,597.154 699.547,594.748C703.877,594.029 703.095,596.152 703.365,600.505C703.599,604.275 700.453,603.678 697.438,604.111Z" style="fill:rgb(70,84,112);"/>
        <path d="M320.44,385.899C324.476,386.475 326.201,386.251 325.634,391.514C324.947,397.892 325.187,400.283 320.472,399.693C312.729,398.724 311.215,398.471 311.566,395.509C312.611,386.687 313.503,385.294 315.511,385.329C315.908,385.336 315.876,385.372 320.44,385.899Z" style="fill:rgb(13,19,23);"/>
        <path d="M275.904,346.576C277.159,338.993 277.087,339.028 277.26,338.387C277.531,337.385 278.703,336.878 287.538,338.176C289.883,338.521 290.622,339.419 288.816,349.563C288.208,352.98 282.968,351.391 279.416,350.863C274.481,350.129 275.936,347.612 275.904,346.576Z" style="fill:rgb(6,8,12);"/>
        <path d="M308.476,369.898C312.557,370.5 314.44,370.422 313.577,376.51C313.315,378.36 313.405,384.309 309.475,383.792C301.716,382.771 299.403,382.748 299.691,379.538C300.546,370.018 301.667,369.661 302.468,369.406C303.687,369.018 303.696,369.306 308.476,369.898Z" style="fill:rgb(3,7,8);"/>
        <path d="M327.555,604.062C322.916,603.352 322.943,603.372 322.545,603.295C319.334,602.675 320.77,594.555 322.476,594.347C322.849,594.301 339.278,597.125 339.617,597.208C341.982,597.791 340.871,604.47 339.507,605.511C338.742,606.096 338.651,605.769 327.555,604.062Z" style="fill:rgb(69,85,112);"/>
        <path d="M289.54,366.224C289.503,366.202 287.348,366.03 287.517,363.499C287.876,358.106 288.655,355.299 288.848,354.606C289.596,351.913 299.681,354.322 300.434,354.629C301.245,354.959 302.849,355.612 300.752,365.568C300.185,368.257 296.171,367.531 289.54,366.224Z" style="fill:rgb(7,12,15);"/>
        <path d="M509.86,430.504C509.439,434.079 509.137,434.788 505.498,434.616C499.907,434.35 498.773,420.854 499.868,419.936C499.941,419.874 499.889,419.907 507.429,417.242C510.447,416.176 509.809,418.975 509.86,430.504Z" style="fill:rgb(253,253,252);"/>
        <path d="M515.046,423.483C515.05,423.002 515.095,417.817 515.484,417.483C516.009,417.031 519.29,418.051 519.61,418.15C523.382,419.322 523.482,419.093 524.275,419.77C525.39,420.722 524.973,434.508 518.5,434.639C513.94,434.732 514.685,432.249 515.046,423.483Z" style="fill:rgb(253,253,252);"/>
        <path d="M341.48,436.487C340.949,437.367 340.146,440.182 337.918,437.164C335.904,434.435 334.921,433.731 337.618,431.658C347.625,423.964 351.051,420.5 349.664,424.538C349.287,425.634 348.502,425.122 341.48,436.487Z" style="fill:rgb(66,69,76);"/>
        <path d="M725.81,306.351C724.704,301.937 725.561,301.867 725.024,294.553C724.984,294.006 724.534,287.869 726.492,287.851C727.186,287.845 727.254,287.879 727.37,288.565C729.37,300.37 728.544,304.978 728.292,306.382C727.025,306.501 727.071,306.629 725.81,306.351Z" style="fill:rgb(239,239,238);"/>
        <path d="M319.442,388.971C321.79,389.641 322.887,389.129 322.559,391.506C322.047,395.217 322.285,396.542 318.544,396.178C314.507,395.785 314.706,394.461 315.58,390.52C316.15,387.95 319.132,388.965 319.442,388.971Z" style="fill:rgb(133,141,148);"/>
        <path d="M281.448,347.925C278.171,346.96 279.07,345.906 279.704,342.542C279.742,342.343 280.039,340.767 281.496,340.761C287.72,340.738 286.739,343.312 286.113,346.423C285.58,349.075 282.803,348.047 281.448,347.925Z" style="fill:rgb(114,124,132);"/>
        <path d="M305.55,380.048C304.491,379.739 301.893,380.151 303.949,373.716C304.293,372.64 310.805,372.02 310.487,375.499C309.903,381.882 307.474,380.033 305.55,380.048Z" style="fill:rgb(115,127,133);"/>
        <path d="M295.452,356.874C297.623,357.326 299.082,357.292 298.015,362.405C297.572,364.525 290.378,365.612 291.22,360.45C291.263,360.181 291.67,357.686 292.153,357.171C292.869,356.41 293.027,356.787 295.452,356.874Z" style="fill:rgb(121,131,139);"/>
        <path d="M463.543,341.907C463.776,341.943 465.771,341.582 467.237,343.659C468.527,345.489 467.428,347.114 467.262,347.359C463.795,352.486 455.514,345.027 463.543,341.907Z" style="fill:rgb(247,247,244);"/>
        <path d="M563.859,345.495C561.665,353.659 553.563,346.67 557.719,342.753C557.971,342.516 559.709,341.512 561.622,342.2C563.67,342.937 563.236,343.413 563.859,345.495Z" style="fill:rgb(247,247,243);"/>
        <path d="M501.23,267.681C505.177,272.446 496.543,271.259 496.966,268.566C497.019,268.226 498.026,261.803 500.169,265.688C500.745,266.731 500.634,266.71 501.23,267.681Z" style="fill:rgb(179,187,194);"/>
        <path d="M448.601,260.206C448.867,260.425 451.604,262.675 449.441,264.43C447.227,266.226 441.544,261.084 448.601,260.206Z" style="fill:rgb(6,6,9);"/>
        <path d="M449.954,276.451C451.959,270.077 455.913,275.786 453.923,277.908C451.847,280.121 450.109,276.752 449.954,276.451Z" style="fill:rgb(9,9,14);"/>
        <path d="M454.057,248.466C452.794,250.981 452.103,251.893 450.119,249.87C448.073,247.783 452.059,242.219 454.057,248.466Z" style="fill:rgb(13,17,20);"/>
    </g>
</svg>
